<?xml version="1.0" encoding="UTF-8"?>
<!DOCTYPE svg PUBLIC "-//W3C//DTD SVG 1.1//EN"
    "http://www.w3.org/Graphics/SVG/1.1/DTD/svg11.dtd"><svg xmlns="http://www.w3.org/2000/svg" viewBox="0.0 0.0 400.0 400.0" height="400.0000" font-size="1" stroke-opacity="1" width="400.0000" xmlns:xlink="http://www.w3.org/1999/xlink" stroke="rgb(0,0,0)" version="1.1"><defs></defs><g stroke-linecap="butt" fill="rgb(173,216,230)" stroke-miterlimit="10.0" stroke-width="0.0" fill-opacity="1.0" stroke-opacity="1.0" stroke-linejoin="miter" stroke="rgb(0,0,0)"><path d="M 207.9051,247.4310 c 0.0000,-4.3659 -3.5392,-7.9051 -7.9051 -7.9051c -4.3659,-0.0000 -7.9051,3.5392 -7.9051 7.9051v 31.6205 c -0.0000,4.3659 3.5392,7.9051 7.9051 7.9051c 4.3659,0.0000 7.9051,-3.5392 7.9051 -7.9051Z"/></g><g stroke-linecap="butt" fill="rgb(173,216,230)" stroke-miterlimit="10.0" stroke-width="0.0" fill-opacity="1.0" stroke-opacity="1.0" stroke-linejoin="miter" stroke="rgb(0,0,0)"><path d="M 271.1461,184.1900 c 0.0000,-4.3659 -3.5392,-7.9051 -7.9051 -7.9051c -4.3659,-0.0000 -7.9051,3.5392 -7.9051 7.9051v 31.6205 v 31.6205 c -0.0000,4.3659 3.5392,7.9051 7.9051 7.9051c 4.3659,0.0000 7.9051,-3.5392 7.9051 -7.9051v -31.6205 Z"/></g><g stroke-linecap="butt" fill="rgb(173,216,230)" stroke-miterlimit="10.0" stroke-width="0.0" fill-opacity="1.0" stroke-opacity="1.0" stroke-linejoin="miter" stroke="rgb(0,0,0)"><path d="M 192.0949,152.5695 c 0.0000,-4.3659 -3.5392,-7.9051 -7.9051 -7.9051c -4.3659,-0.0000 -7.9051,3.5392 -7.9051 7.9051v 31.6205 v 31.6205 c -0.0000,4.3659 3.5392,7.9051 7.9051 7.9051c 4.3659,0.0000 7.9051,-3.5392 7.9051 -7.9051c 0.0000,-4.3659 -3.5392,-7.9051 -7.9051 -7.9051c -2.9942,-0.0000 -5.7315,1.6917 -7.0706 4.3698l -15.8103,31.6205 c -0.5488,1.0977 -0.8346,2.3080 -0.8346 3.5353v 31.6205 v 31.6205 c -0.0000,4.3659 3.5392,7.9051 7.9051 7.9051c 4.3659,0.0000 7.9051,-3.5392 7.9051 -7.9051v -31.6205 v -31.6205 c 0.0000,-4.3659 -3.5392,-7.9051 -7.9051 -7.9051c -4.3659,-0.0000 -7.9051,3.5392 -7.9051 7.9051c -0.0000,4.3659 3.5392,7.9051 7.9051 7.9051c 2.9942,-0.0000 5.7315,-1.6917 7.0706 -4.3698l 15.8103,-31.6205 c 0.5488,-1.0977 0.8346,-2.3080 0.8346 -3.5353v -31.6205 Z"/></g><g stroke-linecap="butt" fill="rgb(173,216,230)" stroke-miterlimit="10.0" stroke-width="0.0" fill-opacity="1.0" stroke-opacity="1.0" stroke-linejoin="miter" stroke="rgb(0,0,0)"><path d="M 255.3359,57.7080 c 0.0000,-4.3659 -3.5392,-7.9051 -7.9051 -7.9051c -4.3659,-0.0000 -7.9051,3.5392 -7.9051 7.9051v 31.6205 v 31.6205 v 31.6205 c -0.0000,4.3659 3.5392,7.9051 7.9051 7.9051c 4.3659,0.0000 7.9051,-3.5392 7.9051 -7.9051c 0.0000,-4.3659 -3.5392,-7.9051 -7.9051 -7.9051c -2.9942,-0.0000 -5.7315,1.6917 -7.0706 4.3698l -15.8103,31.6205 c -0.5488,1.0977 -0.8346,2.3080 -0.8346 3.5353v 31.6205 v 31.6205 v 31.6205 v 31.6205 v 31.6205 c -0.0000,4.3659 3.5392,7.9051 7.9051 7.9051c 4.3659,0.0000 7.9051,-3.5392 7.9051 -7.9051v -31.6205 v -31.6205 v -31.6205 v -31.6205 v -31.6205 c 0.0000,-4.3659 -3.5392,-7.9051 -7.9051 -7.9051c -4.3659,-0.0000 -7.9051,3.5392 -7.9051 7.9051c -0.0000,4.3659 3.5392,7.9051 7.9051 7.9051c 2.9942,-0.0000 5.7315,-1.6917 7.0706 -4.3698l 15.8103,-31.6205 c 0.5488,-1.0977 0.8346,-2.3080 0.8346 -3.5353v -31.6205 v -31.6205 Z"/></g><g stroke-linecap="butt" fill="rgb(173,216,230)" stroke-miterlimit="10.0" stroke-width="0.0" fill-opacity="1.0" stroke-opacity="1.0" stroke-linejoin="miter" stroke="rgb(0,0,0)"><path d="M 208.6021,32.4807 c 3.5308,-2.5679 4.3115,-7.5119 1.7436 -11.0427c -2.5679,-3.5308 -7.5119,-4.3115 -11.0427 -1.7436l -43.4782,31.6205 c -2.0454,1.4876 -3.2556,3.8640 -3.2556 6.3932v 31.6205 v 31.6205 c -0.0000,4.3659 3.5392,7.9051 7.9051 7.9051c 4.3659,0.0000 7.9051,-3.5392 7.9051 -7.9051c 0.0000,-4.3659 -3.5392,-7.9051 -7.9051 -7.9051c -2.4882,-0.0000 -4.8312,1.1715 -6.3241 3.1621l -23.7154,31.6205 c -1.0263,1.3683 -1.5810,3.0326 -1.5810 4.7431v 31.6205 v 31.6205 v 31.6205 v 31.6205 v 31.6205 v 31.6205 v 31.6205 c -0.0000,4.3659 3.5392,7.9051 7.9051 7.9051c 4.3659,0.0000 7.9051,-3.5392 7.9051 -7.9051v -31.6205 v -31.6205 v -31.6205 v -31.6205 v -31.6205 v -31.6205 v -31.6205 c 0.0000,-4.3659 -3.5392,-7.9051 -7.9051 -7.9051c -4.3659,-0.0000 -7.9051,3.5392 -7.9051 7.9051c -0.0000,4.3659 3.5392,7.9051 7.9051 7.9051c 2.4882,0.0000 4.8312,-1.1715 6.3241 -3.1621l 23.7154,-31.6205 c 1.0263,-1.3683 1.5810,-3.0326 1.5810 -4.7431v -31.6205 v -31.6205 c 0.0000,-4.3659 -3.5392,-7.9051 -7.9051 -7.9051c -4.3659,-0.0000 -7.9051,3.5392 -7.9051 7.9051c -0.0000,4.3659 3.5392,7.9051 7.9051 7.9051c 1.6707,-0.0000 3.2984,-0.5293 4.6496 -1.5120Z"/></g><g stroke-linecap="butt" fill="rgb(0,0,0)" stroke-miterlimit="10.0" stroke-width="1.0008684199986642" fill-opacity="0.0" stroke-opacity="1.0" stroke-linejoin="miter" stroke="rgb(0,0,0)"><path d="M 203.9526,26.0875 l 43.4782,31.6205 "/></g><g stroke-linecap="butt" fill="rgb(0,0,0)" stroke-miterlimit="10.0" stroke-width="1.0008684199986642" fill-opacity="0.0" stroke-opacity="1.0" stroke-linejoin="miter" stroke="rgb(0,0,0)"><path d="M 203.9526,26.0875 l -43.4782,31.6205 "/></g><g stroke-linecap="butt" fill="rgb(0,0,0)" stroke-miterlimit="10.0" stroke-width="1.0008684199986642" fill-opacity="0.0" stroke-opacity="1.0" stroke-linejoin="miter" stroke="rgb(0,0,0)"><path d="M 247.4308,57.7080 v 31.6205 "/></g><g stroke-linecap="butt" fill="rgb(0,0,0)" stroke-miterlimit="10.0" stroke-width="1.0008684199986642" fill-opacity="0.0" stroke-opacity="1.0" stroke-linejoin="miter" stroke="rgb(0,0,0)"><path d="M 247.4308,89.3285 v 31.6205 "/></g><g stroke-linecap="butt" fill="rgb(0,0,0)" stroke-miterlimit="10.0" stroke-width="1.0008684199986642" fill-opacity="0.0" stroke-opacity="1.0" stroke-linejoin="miter" stroke="rgb(0,0,0)"><path d="M 247.4308,120.9490 v 31.6205 "/></g><g stroke-linecap="butt" fill="rgb(0,0,0)" stroke-miterlimit="10.0" stroke-width="1.0008684199986642" fill-opacity="0.0" stroke-opacity="1.0" stroke-linejoin="miter" stroke="rgb(0,0,0)"><path d="M 247.4308,152.5695 l 15.8103,31.6205 "/></g><g stroke-linecap="butt" fill="rgb(0,0,0)" stroke-miterlimit="10.0" stroke-width="1.0008684199986642" fill-opacity="0.0" stroke-opacity="1.0" stroke-linejoin="miter" stroke="rgb(0,0,0)"><path d="M 247.4308,152.5695 l -15.8103,31.6205 "/></g><g stroke-linecap="butt" fill="rgb(0,0,0)" stroke-miterlimit="10.0" stroke-width="1.0008684199986642" fill-opacity="0.0" stroke-opacity="1.0" stroke-linejoin="miter" stroke="rgb(0,0,0)"><path d="M 263.2410,184.1900 v 31.6205 "/></g><g stroke-linecap="butt" fill="rgb(0,0,0)" stroke-miterlimit="10.0" stroke-width="1.0008684199986642" fill-opacity="0.0" stroke-opacity="1.0" stroke-linejoin="miter" stroke="rgb(0,0,0)"><path d="M 263.2410,215.8105 v 31.6205 "/></g><g stroke-linecap="butt" fill="rgb(255,255,255)" stroke-miterlimit="10.0" stroke-width="1.0008684199986642" fill-opacity="1.0" stroke-opacity="1.0" stroke-linejoin="miter" stroke="rgb(0,0,0)"><path d="M 267.1936,247.4310 c 0.0000,-2.1829 -1.7696,-3.9526 -3.9526 -3.9526c -2.1829,-0.0000 -3.9526,1.7696 -3.9526 3.9526c -0.0000,2.1829 1.7696,3.9526 3.9526 3.9526c 2.1829,0.0000 3.9526,-1.7696 3.9526 -3.9526Z"/></g><g stroke-linecap="butt" fill="rgb(255,255,255)" stroke-miterlimit="10.0" stroke-width="1.0008684199986642" fill-opacity="1.0" stroke-opacity="1.0" stroke-linejoin="miter" stroke="rgb(0,0,0)"><path d="M 267.1936,215.8105 c 0.0000,-2.1829 -1.7696,-3.9526 -3.9526 -3.9526c -2.1829,-0.0000 -3.9526,1.7696 -3.9526 3.9526c -0.0000,2.1829 1.7696,3.9526 3.9526 3.9526c 2.1829,0.0000 3.9526,-1.7696 3.9526 -3.9526Z"/></g><g stroke-linecap="butt" fill="rgb(255,255,255)" stroke-miterlimit="10.0" stroke-width="1.0008684199986642" fill-opacity="1.0" stroke-opacity="1.0" stroke-linejoin="miter" stroke="rgb(0,0,0)"><path d="M 267.1936,184.1900 c 0.0000,-2.1829 -1.7696,-3.9526 -3.9526 -3.9526c -2.1829,-0.0000 -3.9526,1.7696 -3.9526 3.9526c -0.0000,2.1829 1.7696,3.9526 3.9526 3.9526c 2.1829,0.0000 3.9526,-1.7696 3.9526 -3.9526Z"/></g><g stroke-linecap="butt" fill="rgb(0,0,0)" stroke-miterlimit="10.0" stroke-width="1.0008684199986642" fill-opacity="0.0" stroke-opacity="1.0" stroke-linejoin="miter" stroke="rgb(0,0,0)"><path d="M 231.6205,184.1900 v 31.6205 "/></g><g stroke-linecap="butt" fill="rgb(0,0,0)" stroke-miterlimit="10.0" stroke-width="1.0008684199986642" fill-opacity="0.0" stroke-opacity="1.0" stroke-linejoin="miter" stroke="rgb(0,0,0)"><path d="M 231.6205,215.8105 v 31.6205 "/></g><g stroke-linecap="butt" fill="rgb(0,0,0)" stroke-miterlimit="10.0" stroke-width="1.0008684199986642" fill-opacity="0.0" stroke-opacity="1.0" stroke-linejoin="miter" stroke="rgb(0,0,0)"><path d="M 231.6205,247.4310 v 31.6205 "/></g><g stroke-linecap="butt" fill="rgb(0,0,0)" stroke-miterlimit="10.0" stroke-width="1.0008684199986642" fill-opacity="0.0" stroke-opacity="1.0" stroke-linejoin="miter" stroke="rgb(0,0,0)"><path d="M 231.6205,279.0515 v 31.6205 "/></g><g stroke-linecap="butt" fill="rgb(0,0,0)" stroke-miterlimit="10.0" stroke-width="1.0008684199986642" fill-opacity="0.0" stroke-opacity="1.0" stroke-linejoin="miter" stroke="rgb(0,0,0)"><path d="M 231.6205,310.6720 v 31.6205 "/></g><g stroke-linecap="butt" fill="rgb(255,255,255)" stroke-miterlimit="10.0" stroke-width="1.0008684199986642" fill-opacity="1.0" stroke-opacity="1.0" stroke-linejoin="miter" stroke="rgb(0,0,0)"><path d="M 235.5731,342.2926 c 0.0000,-2.1829 -1.7696,-3.9526 -3.9526 -3.9526c -2.1829,-0.0000 -3.9526,1.7696 -3.9526 3.9526c -0.0000,2.1829 1.7696,3.9526 3.9526 3.9526c 2.1829,0.0000 3.9526,-1.7696 3.9526 -3.9526Z"/></g><g stroke-linecap="butt" fill="rgb(255,255,255)" stroke-miterlimit="10.0" stroke-width="1.0008684199986642" fill-opacity="1.0" stroke-opacity="1.0" stroke-linejoin="miter" stroke="rgb(0,0,0)"><path d="M 235.5731,310.6720 c 0.0000,-2.1829 -1.7696,-3.9526 -3.9526 -3.9526c -2.1829,-0.0000 -3.9526,1.7696 -3.9526 3.9526c -0.0000,2.1829 1.7696,3.9526 3.9526 3.9526c 2.1829,0.0000 3.9526,-1.7696 3.9526 -3.9526Z"/></g><g stroke-linecap="butt" fill="rgb(255,255,255)" stroke-miterlimit="10.0" stroke-width="1.0008684199986642" fill-opacity="1.0" stroke-opacity="1.0" stroke-linejoin="miter" stroke="rgb(0,0,0)"><path d="M 235.5731,279.0515 c 0.0000,-2.1829 -1.7696,-3.9526 -3.9526 -3.9526c -2.1829,-0.0000 -3.9526,1.7696 -3.9526 3.9526c -0.0000,2.1829 1.7696,3.9526 3.9526 3.9526c 2.1829,0.0000 3.9526,-1.7696 3.9526 -3.9526Z"/></g><g stroke-linecap="butt" fill="rgb(255,255,255)" stroke-miterlimit="10.0" stroke-width="1.0008684199986642" fill-opacity="1.0" stroke-opacity="1.0" stroke-linejoin="miter" stroke="rgb(0,0,0)"><path d="M 235.5731,247.4310 c 0.0000,-2.1829 -1.7696,-3.9526 -3.9526 -3.9526c -2.1829,-0.0000 -3.9526,1.7696 -3.9526 3.9526c -0.0000,2.1829 1.7696,3.9526 3.9526 3.9526c 2.1829,0.0000 3.9526,-1.7696 3.9526 -3.9526Z"/></g><g stroke-linecap="butt" fill="rgb(255,255,255)" stroke-miterlimit="10.0" stroke-width="1.0008684199986642" fill-opacity="1.0" stroke-opacity="1.0" stroke-linejoin="miter" stroke="rgb(0,0,0)"><path d="M 235.5731,215.8105 c 0.0000,-2.1829 -1.7696,-3.9526 -3.9526 -3.9526c -2.1829,-0.0000 -3.9526,1.7696 -3.9526 3.9526c -0.0000,2.1829 1.7696,3.9526 3.9526 3.9526c 2.1829,0.0000 3.9526,-1.7696 3.9526 -3.9526Z"/></g><g stroke-linecap="butt" fill="rgb(255,255,255)" stroke-miterlimit="10.0" stroke-width="1.0008684199986642" fill-opacity="1.0" stroke-opacity="1.0" stroke-linejoin="miter" stroke="rgb(0,0,0)"><path d="M 235.5731,184.1900 c 0.0000,-2.1829 -1.7696,-3.9526 -3.9526 -3.9526c -2.1829,-0.0000 -3.9526,1.7696 -3.9526 3.9526c -0.0000,2.1829 1.7696,3.9526 3.9526 3.9526c 2.1829,0.0000 3.9526,-1.7696 3.9526 -3.9526Z"/></g><g stroke-linecap="butt" fill="rgb(255,255,255)" stroke-miterlimit="10.0" stroke-width="1.0008684199986642" fill-opacity="1.0" stroke-opacity="1.0" stroke-linejoin="miter" stroke="rgb(0,0,0)"><path d="M 251.3833,152.5695 c 0.0000,-2.1829 -1.7696,-3.9526 -3.9526 -3.9526c -2.1829,-0.0000 -3.9526,1.7696 -3.9526 3.9526c -0.0000,2.1829 1.7696,3.9526 3.9526 3.9526c 2.1829,0.0000 3.9526,-1.7696 3.9526 -3.9526Z"/></g><g stroke-linecap="butt" fill="rgb(255,255,255)" stroke-miterlimit="10.0" stroke-width="1.0008684199986642" fill-opacity="1.0" stroke-opacity="1.0" stroke-linejoin="miter" stroke="rgb(0,0,0)"><path d="M 251.3833,120.9490 c 0.0000,-2.1829 -1.7696,-3.9526 -3.9526 -3.9526c -2.1829,-0.0000 -3.9526,1.7696 -3.9526 3.9526c -0.0000,2.1829 1.7696,3.9526 3.9526 3.9526c 2.1829,0.0000 3.9526,-1.7696 3.9526 -3.9526Z"/></g><g stroke-linecap="butt" fill="rgb(255,255,255)" stroke-miterlimit="10.0" stroke-width="1.0008684199986642" fill-opacity="1.0" stroke-opacity="1.0" stroke-linejoin="miter" stroke="rgb(0,0,0)"><path d="M 251.3833,89.3285 c 0.0000,-2.1829 -1.7696,-3.9526 -3.9526 -3.9526c -2.1829,-0.0000 -3.9526,1.7696 -3.9526 3.9526c -0.0000,2.1829 1.7696,3.9526 3.9526 3.9526c 2.1829,0.0000 3.9526,-1.7696 3.9526 -3.9526Z"/></g><g stroke-linecap="butt" fill="rgb(255,255,255)" stroke-miterlimit="10.0" stroke-width="1.0008684199986642" fill-opacity="1.0" stroke-opacity="1.0" stroke-linejoin="miter" stroke="rgb(0,0,0)"><path d="M 251.3833,57.7080 c 0.0000,-2.1829 -1.7696,-3.9526 -3.9526 -3.9526c -2.1829,-0.0000 -3.9526,1.7696 -3.9526 3.9526c -0.0000,2.1829 1.7696,3.9526 3.9526 3.9526c 2.1829,0.0000 3.9526,-1.7696 3.9526 -3.9526Z"/></g><g stroke-linecap="butt" fill="rgb(0,0,0)" stroke-miterlimit="10.0" stroke-width="1.0008684199986642" fill-opacity="0.0" stroke-opacity="1.0" stroke-linejoin="miter" stroke="rgb(0,0,0)"><path d="M 160.4744,57.7080 v 31.6205 "/></g><g stroke-linecap="butt" fill="rgb(0,0,0)" stroke-miterlimit="10.0" stroke-width="1.0008684199986642" fill-opacity="0.0" stroke-opacity="1.0" stroke-linejoin="miter" stroke="rgb(0,0,0)"><path d="M 160.4744,89.3285 v 31.6205 "/></g><g stroke-linecap="butt" fill="rgb(0,0,0)" stroke-miterlimit="10.0" stroke-width="1.0008684199986642" fill-opacity="0.0" stroke-opacity="1.0" stroke-linejoin="miter" stroke="rgb(0,0,0)"><path d="M 160.4744,120.9490 l 23.7154,31.6205 "/></g><g stroke-linecap="butt" fill="rgb(0,0,0)" stroke-miterlimit="10.0" stroke-width="1.0008684199986642" fill-opacity="0.0" stroke-opacity="1.0" stroke-linejoin="miter" stroke="rgb(0,0,0)"><path d="M 160.4744,120.9490 l -23.7154,31.6205 "/></g><g stroke-linecap="butt" fill="rgb(0,0,0)" stroke-miterlimit="10.0" stroke-width="1.0008684199986642" fill-opacity="0.0" stroke-opacity="1.0" stroke-linejoin="miter" stroke="rgb(0,0,0)"><path d="M 184.1897,152.5695 v 31.6205 "/></g><g stroke-linecap="butt" fill="rgb(0,0,0)" stroke-miterlimit="10.0" stroke-width="1.0008684199986642" fill-opacity="0.0" stroke-opacity="1.0" stroke-linejoin="miter" stroke="rgb(0,0,0)"><path d="M 184.1897,184.1900 v 31.6205 "/></g><g stroke-linecap="butt" fill="rgb(0,0,0)" stroke-miterlimit="10.0" stroke-width="1.0008684199986642" fill-opacity="0.0" stroke-opacity="1.0" stroke-linejoin="miter" stroke="rgb(0,0,0)"><path d="M 184.1897,215.8105 l 15.8103,31.6205 "/></g><g stroke-linecap="butt" fill="rgb(0,0,0)" stroke-miterlimit="10.0" stroke-width="1.0008684199986642" fill-opacity="0.0" stroke-opacity="1.0" stroke-linejoin="miter" stroke="rgb(0,0,0)"><path d="M 184.1897,215.8105 l -15.8103,31.6205 "/></g><g stroke-linecap="butt" fill="rgb(0,0,0)" stroke-miterlimit="10.0" stroke-width="1.0008684199986642" fill-opacity="0.0" stroke-opacity="1.0" stroke-linejoin="miter" stroke="rgb(0,0,0)"><path d="M 200.0000,247.4310 v 31.6205 "/></g><g stroke-linecap="butt" fill="rgb(255,255,255)" stroke-miterlimit="10.0" stroke-width="1.0008684199986642" fill-opacity="1.0" stroke-opacity="1.0" stroke-linejoin="miter" stroke="rgb(0,0,0)"><path d="M 203.9526,279.0515 c 0.0000,-2.1829 -1.7696,-3.9526 -3.9526 -3.9526c -2.1829,-0.0000 -3.9526,1.7696 -3.9526 3.9526c -0.0000,2.1829 1.7696,3.9526 3.9526 3.9526c 2.1829,0.0000 3.9526,-1.7696 3.9526 -3.9526Z"/></g><g stroke-linecap="butt" fill="rgb(255,255,255)" stroke-miterlimit="10.0" stroke-width="1.0008684199986642" fill-opacity="1.0" stroke-opacity="1.0" stroke-linejoin="miter" stroke="rgb(0,0,0)"><path d="M 203.9526,247.4310 c 0.0000,-2.1829 -1.7696,-3.9526 -3.9526 -3.9526c -2.1829,-0.0000 -3.9526,1.7696 -3.9526 3.9526c -0.0000,2.1829 1.7696,3.9526 3.9526 3.9526c 2.1829,0.0000 3.9526,-1.7696 3.9526 -3.9526Z"/></g><g stroke-linecap="butt" fill="rgb(0,0,0)" stroke-miterlimit="10.0" stroke-width="1.0008684199986642" fill-opacity="0.0" stroke-opacity="1.0" stroke-linejoin="miter" stroke="rgb(0,0,0)"><path d="M 168.3795,247.4310 v 31.6205 "/></g><g stroke-linecap="butt" fill="rgb(0,0,0)" stroke-miterlimit="10.0" stroke-width="1.0008684199986642" fill-opacity="0.0" stroke-opacity="1.0" stroke-linejoin="miter" stroke="rgb(0,0,0)"><path d="M 168.3795,279.0515 v 31.6205 "/></g><g stroke-linecap="butt" fill="rgb(255,255,255)" stroke-miterlimit="10.0" stroke-width="1.0008684199986642" fill-opacity="1.0" stroke-opacity="1.0" stroke-linejoin="miter" stroke="rgb(0,0,0)"><path d="M 172.3321,310.6720 c 0.0000,-2.1829 -1.7696,-3.9526 -3.9526 -3.9526c -2.1829,-0.0000 -3.9526,1.7696 -3.9526 3.9526c -0.0000,2.1829 1.7696,3.9526 3.9526 3.9526c 2.1829,0.0000 3.9526,-1.7696 3.9526 -3.9526Z"/></g><g stroke-linecap="butt" fill="rgb(255,255,255)" stroke-miterlimit="10.0" stroke-width="1.0008684199986642" fill-opacity="1.0" stroke-opacity="1.0" stroke-linejoin="miter" stroke="rgb(0,0,0)"><path d="M 172.3321,279.0515 c 0.0000,-2.1829 -1.7696,-3.9526 -3.9526 -3.9526c -2.1829,-0.0000 -3.9526,1.7696 -3.9526 3.9526c -0.0000,2.1829 1.7696,3.9526 3.9526 3.9526c 2.1829,0.0000 3.9526,-1.7696 3.9526 -3.9526Z"/></g><g stroke-linecap="butt" fill="rgb(255,255,255)" stroke-miterlimit="10.0" stroke-width="1.0008684199986642" fill-opacity="1.0" stroke-opacity="1.0" stroke-linejoin="miter" stroke="rgb(0,0,0)"><path d="M 172.3321,247.4310 c 0.0000,-2.1829 -1.7696,-3.9526 -3.9526 -3.9526c -2.1829,-0.0000 -3.9526,1.7696 -3.9526 3.9526c -0.0000,2.1829 1.7696,3.9526 3.9526 3.9526c 2.1829,0.0000 3.9526,-1.7696 3.9526 -3.9526Z"/></g><g stroke-linecap="butt" fill="rgb(255,255,255)" stroke-miterlimit="10.0" stroke-width="1.0008684199986642" fill-opacity="1.0" stroke-opacity="1.0" stroke-linejoin="miter" stroke="rgb(0,0,0)"><path d="M 188.1423,215.8105 c 0.0000,-2.1829 -1.7696,-3.9526 -3.9526 -3.9526c -2.1829,-0.0000 -3.9526,1.7696 -3.9526 3.9526c -0.0000,2.1829 1.7696,3.9526 3.9526 3.9526c 2.1829,0.0000 3.9526,-1.7696 3.9526 -3.9526Z"/></g><g stroke-linecap="butt" fill="rgb(255,255,255)" stroke-miterlimit="10.0" stroke-width="1.0008684199986642" fill-opacity="1.0" stroke-opacity="1.0" stroke-linejoin="miter" stroke="rgb(0,0,0)"><path d="M 188.1423,184.1900 c 0.0000,-2.1829 -1.7696,-3.9526 -3.9526 -3.9526c -2.1829,-0.0000 -3.9526,1.7696 -3.9526 3.9526c -0.0000,2.1829 1.7696,3.9526 3.9526 3.9526c 2.1829,0.0000 3.9526,-1.7696 3.9526 -3.9526Z"/></g><g stroke-linecap="butt" fill="rgb(255,255,255)" stroke-miterlimit="10.0" stroke-width="1.0008684199986642" fill-opacity="1.0" stroke-opacity="1.0" stroke-linejoin="miter" stroke="rgb(0,0,0)"><path d="M 188.1423,152.5695 c 0.0000,-2.1829 -1.7696,-3.9526 -3.9526 -3.9526c -2.1829,-0.0000 -3.9526,1.7696 -3.9526 3.9526c -0.0000,2.1829 1.7696,3.9526 3.9526 3.9526c 2.1829,0.0000 3.9526,-1.7696 3.9526 -3.9526Z"/></g><g stroke-linecap="butt" fill="rgb(0,0,0)" stroke-miterlimit="10.0" stroke-width="1.0008684199986642" fill-opacity="0.0" stroke-opacity="1.0" stroke-linejoin="miter" stroke="rgb(0,0,0)"><path d="M 136.7590,152.5695 v 31.6205 "/></g><g stroke-linecap="butt" fill="rgb(0,0,0)" stroke-miterlimit="10.0" stroke-width="1.0008684199986642" fill-opacity="0.0" stroke-opacity="1.0" stroke-linejoin="miter" stroke="rgb(0,0,0)"><path d="M 136.7590,184.1900 v 31.6205 "/></g><g stroke-linecap="butt" fill="rgb(0,0,0)" stroke-miterlimit="10.0" stroke-width="1.0008684199986642" fill-opacity="0.0" stroke-opacity="1.0" stroke-linejoin="miter" stroke="rgb(0,0,0)"><path d="M 136.7590,215.8105 v 31.6205 "/></g><g stroke-linecap="butt" fill="rgb(0,0,0)" stroke-miterlimit="10.0" stroke-width="1.0008684199986642" fill-opacity="0.0" stroke-opacity="1.0" stroke-linejoin="miter" stroke="rgb(0,0,0)"><path d="M 136.7590,247.4310 v 31.6205 "/></g><g stroke-linecap="butt" fill="rgb(0,0,0)" stroke-miterlimit="10.0" stroke-width="1.0008684199986642" fill-opacity="0.0" stroke-opacity="1.0" stroke-linejoin="miter" stroke="rgb(0,0,0)"><path d="M 136.7590,279.0515 v 31.6205 "/></g><g stroke-linecap="butt" fill="rgb(0,0,0)" stroke-miterlimit="10.0" stroke-width="1.0008684199986642" fill-opacity="0.0" stroke-opacity="1.0" stroke-linejoin="miter" stroke="rgb(0,0,0)"><path d="M 136.7590,310.6720 v 31.6205 "/></g><g stroke-linecap="butt" fill="rgb(0,0,0)" stroke-miterlimit="10.0" stroke-width="1.0008684199986642" fill-opacity="0.0" stroke-opacity="1.0" stroke-linejoin="miter" stroke="rgb(0,0,0)"><path d="M 136.7590,342.2926 v 31.6205 "/></g><g stroke-linecap="butt" fill="rgb(255,255,255)" stroke-miterlimit="10.0" stroke-width="1.0008684199986642" fill-opacity="1.0" stroke-opacity="1.0" stroke-linejoin="miter" stroke="rgb(0,0,0)"><path d="M 140.7116,373.9131 c 0.0000,-2.1829 -1.7696,-3.9526 -3.9526 -3.9526c -2.1829,-0.0000 -3.9526,1.7696 -3.9526 3.9526c -0.0000,2.1829 1.7696,3.9526 3.9526 3.9526c 2.1829,0.0000 3.9526,-1.7696 3.9526 -3.9526Z"/></g><g stroke-linecap="butt" fill="rgb(255,255,255)" stroke-miterlimit="10.0" stroke-width="1.0008684199986642" fill-opacity="1.0" stroke-opacity="1.0" stroke-linejoin="miter" stroke="rgb(0,0,0)"><path d="M 140.7116,342.2926 c 0.0000,-2.1829 -1.7696,-3.9526 -3.9526 -3.9526c -2.1829,-0.0000 -3.9526,1.7696 -3.9526 3.9526c -0.0000,2.1829 1.7696,3.9526 3.9526 3.9526c 2.1829,0.0000 3.9526,-1.7696 3.9526 -3.9526Z"/></g><g stroke-linecap="butt" fill="rgb(255,255,255)" stroke-miterlimit="10.0" stroke-width="1.0008684199986642" fill-opacity="1.0" stroke-opacity="1.0" stroke-linejoin="miter" stroke="rgb(0,0,0)"><path d="M 140.7116,310.6720 c 0.0000,-2.1829 -1.7696,-3.9526 -3.9526 -3.9526c -2.1829,-0.0000 -3.9526,1.7696 -3.9526 3.9526c -0.0000,2.1829 1.7696,3.9526 3.9526 3.9526c 2.1829,0.0000 3.9526,-1.7696 3.9526 -3.9526Z"/></g><g stroke-linecap="butt" fill="rgb(255,255,255)" stroke-miterlimit="10.0" stroke-width="1.0008684199986642" fill-opacity="1.0" stroke-opacity="1.0" stroke-linejoin="miter" stroke="rgb(0,0,0)"><path d="M 140.7116,279.0515 c 0.0000,-2.1829 -1.7696,-3.9526 -3.9526 -3.9526c -2.1829,-0.0000 -3.9526,1.7696 -3.9526 3.9526c -0.0000,2.1829 1.7696,3.9526 3.9526 3.9526c 2.1829,0.0000 3.9526,-1.7696 3.9526 -3.9526Z"/></g><g stroke-linecap="butt" fill="rgb(255,255,255)" stroke-miterlimit="10.0" stroke-width="1.0008684199986642" fill-opacity="1.0" stroke-opacity="1.0" stroke-linejoin="miter" stroke="rgb(0,0,0)"><path d="M 140.7116,247.4310 c 0.0000,-2.1829 -1.7696,-3.9526 -3.9526 -3.9526c -2.1829,-0.0000 -3.9526,1.7696 -3.9526 3.9526c -0.0000,2.1829 1.7696,3.9526 3.9526 3.9526c 2.1829,0.0000 3.9526,-1.7696 3.9526 -3.9526Z"/></g><g stroke-linecap="butt" fill="rgb(255,255,255)" stroke-miterlimit="10.0" stroke-width="1.0008684199986642" fill-opacity="1.0" stroke-opacity="1.0" stroke-linejoin="miter" stroke="rgb(0,0,0)"><path d="M 140.7116,215.8105 c 0.0000,-2.1829 -1.7696,-3.9526 -3.9526 -3.9526c -2.1829,-0.0000 -3.9526,1.7696 -3.9526 3.9526c -0.0000,2.1829 1.7696,3.9526 3.9526 3.9526c 2.1829,0.0000 3.9526,-1.7696 3.9526 -3.9526Z"/></g><g stroke-linecap="butt" fill="rgb(255,255,255)" stroke-miterlimit="10.0" stroke-width="1.0008684199986642" fill-opacity="1.0" stroke-opacity="1.0" stroke-linejoin="miter" stroke="rgb(0,0,0)"><path d="M 140.7116,184.1900 c 0.0000,-2.1829 -1.7696,-3.9526 -3.9526 -3.9526c -2.1829,-0.0000 -3.9526,1.7696 -3.9526 3.9526c -0.0000,2.1829 1.7696,3.9526 3.9526 3.9526c 2.1829,0.0000 3.9526,-1.7696 3.9526 -3.9526Z"/></g><g stroke-linecap="butt" fill="rgb(255,255,255)" stroke-miterlimit="10.0" stroke-width="1.0008684199986642" fill-opacity="1.0" stroke-opacity="1.0" stroke-linejoin="miter" stroke="rgb(0,0,0)"><path d="M 140.7116,152.5695 c 0.0000,-2.1829 -1.7696,-3.9526 -3.9526 -3.9526c -2.1829,-0.0000 -3.9526,1.7696 -3.9526 3.9526c -0.0000,2.1829 1.7696,3.9526 3.9526 3.9526c 2.1829,0.0000 3.9526,-1.7696 3.9526 -3.9526Z"/></g><g stroke-linecap="butt" fill="rgb(255,255,255)" stroke-miterlimit="10.0" stroke-width="1.0008684199986642" fill-opacity="1.0" stroke-opacity="1.0" stroke-linejoin="miter" stroke="rgb(0,0,0)"><path d="M 164.4269,120.9490 c 0.0000,-2.1829 -1.7696,-3.9526 -3.9526 -3.9526c -2.1829,-0.0000 -3.9526,1.7696 -3.9526 3.9526c -0.0000,2.1829 1.7696,3.9526 3.9526 3.9526c 2.1829,0.0000 3.9526,-1.7696 3.9526 -3.9526Z"/></g><g stroke-linecap="butt" fill="rgb(255,255,255)" stroke-miterlimit="10.0" stroke-width="1.0008684199986642" fill-opacity="1.0" stroke-opacity="1.0" stroke-linejoin="miter" stroke="rgb(0,0,0)"><path d="M 164.4269,89.3285 c 0.0000,-2.1829 -1.7696,-3.9526 -3.9526 -3.9526c -2.1829,-0.0000 -3.9526,1.7696 -3.9526 3.9526c -0.0000,2.1829 1.7696,3.9526 3.9526 3.9526c 2.1829,0.0000 3.9526,-1.7696 3.9526 -3.9526Z"/></g><g stroke-linecap="butt" fill="rgb(255,255,255)" stroke-miterlimit="10.0" stroke-width="1.0008684199986642" fill-opacity="1.0" stroke-opacity="1.0" stroke-linejoin="miter" stroke="rgb(0,0,0)"><path d="M 164.4269,57.7080 c 0.0000,-2.1829 -1.7696,-3.9526 -3.9526 -3.9526c -2.1829,-0.0000 -3.9526,1.7696 -3.9526 3.9526c -0.0000,2.1829 1.7696,3.9526 3.9526 3.9526c 2.1829,0.0000 3.9526,-1.7696 3.9526 -3.9526Z"/></g><g stroke-linecap="butt" fill="rgb(255,255,255)" stroke-miterlimit="10.0" stroke-width="1.0008684199986642" fill-opacity="1.0" stroke-opacity="1.0" stroke-linejoin="miter" stroke="rgb(0,0,0)"><path d="M 207.9051,26.0875 c 0.0000,-2.1829 -1.7696,-3.9526 -3.9526 -3.9526c -2.1829,-0.0000 -3.9526,1.7696 -3.9526 3.9526c -0.0000,2.1829 1.7696,3.9526 3.9526 3.9526c 2.1829,0.0000 3.9526,-1.7696 3.9526 -3.9526Z"/></g></svg>