<?xml version="1.0" encoding="UTF-8"?>
<!DOCTYPE svg PUBLIC "-//W3C//DTD SVG 1.1//EN"
    "http://www.w3.org/Graphics/SVG/1.1/DTD/svg11.dtd"><svg xmlns="http://www.w3.org/2000/svg" viewBox="0.0 0.0 400.0 400.0" height="400.0000" font-size="1" stroke-opacity="1" width="400.0000" xmlns:xlink="http://www.w3.org/1999/xlink" stroke="rgb(0,0,0)" version="1.1"><defs></defs><g stroke-linecap="butt" fill="rgb(0,0,0)" stroke-miterlimit="10.0" stroke-width="1.2236660044987921" fill-opacity="0.0" stroke-opacity="1.0" stroke-linejoin="miter" stroke="rgb(0,0,0)"><path d="M 282.3328,21.6123 l 20.5832,27.4443 "/></g><g stroke-linecap="butt" fill="rgb(0,0,0)" stroke-miterlimit="10.0" stroke-width="1.2236660044987921" fill-opacity="0.0" stroke-opacity="1.0" stroke-linejoin="miter" stroke="rgb(0,0,0)"><path d="M 282.3328,21.6123 l -20.5832,27.4443 "/></g><g stroke-linecap="butt" fill="rgb(0,0,0)" stroke-miterlimit="10.0" stroke-width="1.2236660044987921" fill-opacity="0.0" stroke-opacity="1.0" stroke-linejoin="miter" stroke="rgb(0,0,0)"><path d="M 302.9160,49.0566 v 27.4443 "/></g><g stroke-linecap="butt" fill="rgb(0,0,0)" stroke-miterlimit="10.0" stroke-width="1.2236660044987921" fill-opacity="0.0" stroke-opacity="1.0" stroke-linejoin="miter" stroke="rgb(0,0,0)"><path d="M 302.9160,76.5009 v 27.4443 "/></g><g stroke-linecap="butt" fill="rgb(0,0,0)" stroke-miterlimit="10.0" stroke-width="1.2236660044987921" fill-opacity="0.0" stroke-opacity="1.0" stroke-linejoin="miter" stroke="rgb(0,0,0)"><path d="M 302.9160,103.9451 v 27.4443 "/></g><g stroke-linecap="butt" fill="rgb(0,0,0)" stroke-miterlimit="10.0" stroke-width="1.2236660044987921" fill-opacity="0.0" stroke-opacity="1.0" stroke-linejoin="miter" stroke="rgb(0,0,0)"><path d="M 302.9160,131.3894 v 27.4443 "/></g><g stroke-linecap="butt" fill="rgb(0,0,0)" stroke-miterlimit="10.0" stroke-width="1.2236660044987921" fill-opacity="0.0" stroke-opacity="1.0" stroke-linejoin="miter" stroke="rgb(0,0,0)"><path d="M 302.9160,158.8336 v 27.4443 "/></g><g stroke-linecap="butt" fill="rgb(0,0,0)" stroke-miterlimit="10.0" stroke-width="1.2236660044987921" fill-opacity="0.0" stroke-opacity="1.0" stroke-linejoin="miter" stroke="rgb(0,0,0)"><path d="M 302.9160,186.2779 v 27.4443 "/></g><g stroke-linecap="butt" fill="rgb(0,0,0)" stroke-miterlimit="10.0" stroke-width="1.2236660044987921" fill-opacity="0.0" stroke-opacity="1.0" stroke-linejoin="miter" stroke="rgb(0,0,0)"><path d="M 302.9160,213.7221 v 27.4443 "/></g><g stroke-linecap="butt" fill="rgb(0,0,0)" stroke-miterlimit="10.0" stroke-width="1.2236660044987921" fill-opacity="0.0" stroke-opacity="1.0" stroke-linejoin="miter" stroke="rgb(0,0,0)"><path d="M 302.9160,241.1664 v 27.4443 "/></g><g stroke-linecap="butt" fill="rgb(0,0,0)" stroke-miterlimit="10.0" stroke-width="1.2236660044987921" fill-opacity="0.0" stroke-opacity="1.0" stroke-linejoin="miter" stroke="rgb(0,0,0)"><path d="M 302.9160,268.6106 v 27.4443 "/></g><g stroke-linecap="butt" fill="rgb(0,0,0)" stroke-miterlimit="10.0" stroke-width="1.2236660044987921" fill-opacity="0.0" stroke-opacity="1.0" stroke-linejoin="miter" stroke="rgb(0,0,0)"><path d="M 302.9160,296.0549 v 27.4443 "/></g><g stroke-linecap="butt" fill="rgb(0,0,0)" stroke-miterlimit="10.0" stroke-width="1.2236660044987921" fill-opacity="0.0" stroke-opacity="1.0" stroke-linejoin="miter" stroke="rgb(0,0,0)"><path d="M 302.9160,323.4991 v 27.4443 "/></g><g stroke-linecap="butt" fill="rgb(0,0,0)" stroke-miterlimit="10.0" stroke-width="1.2236660044987921" fill-opacity="1.0" stroke-opacity="1.0" stroke-linejoin="miter" stroke="rgb(0,0,0)"><path d="M 306.3465,350.9434 c 0.0000,-1.8946 -1.5359,-3.4305 -3.4305 -3.4305c -1.8946,-0.0000 -3.4305,1.5359 -3.4305 3.4305c -0.0000,1.8946 1.5359,3.4305 3.4305 3.4305c 1.8946,0.0000 3.4305,-1.5359 3.4305 -3.4305Z"/></g><g stroke-linecap="butt" fill="rgb(0,0,0)" stroke-miterlimit="10.0" stroke-width="1.2236660044987921" fill-opacity="1.0" stroke-opacity="1.0" stroke-linejoin="miter" stroke="rgb(0,0,0)"><path d="M 306.3465,323.4991 c 0.0000,-1.8946 -1.5359,-3.4305 -3.4305 -3.4305c -1.8946,-0.0000 -3.4305,1.5359 -3.4305 3.4305c -0.0000,1.8946 1.5359,3.4305 3.4305 3.4305c 1.8946,0.0000 3.4305,-1.5359 3.4305 -3.4305Z"/></g><g stroke-linecap="butt" fill="rgb(0,0,0)" stroke-miterlimit="10.0" stroke-width="1.2236660044987921" fill-opacity="1.0" stroke-opacity="1.0" stroke-linejoin="miter" stroke="rgb(0,0,0)"><path d="M 306.3465,296.0549 c 0.0000,-1.8946 -1.5359,-3.4305 -3.4305 -3.4305c -1.8946,-0.0000 -3.4305,1.5359 -3.4305 3.4305c -0.0000,1.8946 1.5359,3.4305 3.4305 3.4305c 1.8946,0.0000 3.4305,-1.5359 3.4305 -3.4305Z"/></g><g stroke-linecap="butt" fill="rgb(0,0,0)" stroke-miterlimit="10.0" stroke-width="1.2236660044987921" fill-opacity="1.0" stroke-opacity="1.0" stroke-linejoin="miter" stroke="rgb(0,0,0)"><path d="M 306.3465,268.6106 c 0.0000,-1.8946 -1.5359,-3.4305 -3.4305 -3.4305c -1.8946,-0.0000 -3.4305,1.5359 -3.4305 3.4305c -0.0000,1.8946 1.5359,3.4305 3.4305 3.4305c 1.8946,0.0000 3.4305,-1.5359 3.4305 -3.4305Z"/></g><g stroke-linecap="butt" fill="rgb(0,0,0)" stroke-miterlimit="10.0" stroke-width="1.2236660044987921" fill-opacity="1.0" stroke-opacity="1.0" stroke-linejoin="miter" stroke="rgb(0,0,0)"><path d="M 306.3465,241.1664 c 0.0000,-1.8946 -1.5359,-3.4305 -3.4305 -3.4305c -1.8946,-0.0000 -3.4305,1.5359 -3.4305 3.4305c -0.0000,1.8946 1.5359,3.4305 3.4305 3.4305c 1.8946,0.0000 3.4305,-1.5359 3.4305 -3.4305Z"/></g><g stroke-linecap="butt" fill="rgb(0,0,0)" stroke-miterlimit="10.0" stroke-width="1.2236660044987921" fill-opacity="1.0" stroke-opacity="1.0" stroke-linejoin="miter" stroke="rgb(0,0,0)"><path d="M 306.3465,213.7221 c 0.0000,-1.8946 -1.5359,-3.4305 -3.4305 -3.4305c -1.8946,-0.0000 -3.4305,1.5359 -3.4305 3.4305c -0.0000,1.8946 1.5359,3.4305 3.4305 3.4305c 1.8946,0.0000 3.4305,-1.5359 3.4305 -3.4305Z"/></g><g stroke-linecap="butt" fill="rgb(0,0,0)" stroke-miterlimit="10.0" stroke-width="1.2236660044987921" fill-opacity="1.0" stroke-opacity="1.0" stroke-linejoin="miter" stroke="rgb(0,0,0)"><path d="M 306.3465,186.2779 c 0.0000,-1.8946 -1.5359,-3.4305 -3.4305 -3.4305c -1.8946,-0.0000 -3.4305,1.5359 -3.4305 3.4305c -0.0000,1.8946 1.5359,3.4305 3.4305 3.4305c 1.8946,0.0000 3.4305,-1.5359 3.4305 -3.4305Z"/></g><g stroke-linecap="butt" fill="rgb(0,0,0)" stroke-miterlimit="10.0" stroke-width="1.2236660044987921" fill-opacity="1.0" stroke-opacity="1.0" stroke-linejoin="miter" stroke="rgb(0,0,0)"><path d="M 306.3465,158.8336 c 0.0000,-1.8946 -1.5359,-3.4305 -3.4305 -3.4305c -1.8946,-0.0000 -3.4305,1.5359 -3.4305 3.4305c -0.0000,1.8946 1.5359,3.4305 3.4305 3.4305c 1.8946,0.0000 3.4305,-1.5359 3.4305 -3.4305Z"/></g><g stroke-linecap="butt" fill="rgb(0,0,0)" stroke-miterlimit="10.0" stroke-width="1.2236660044987921" fill-opacity="1.0" stroke-opacity="1.0" stroke-linejoin="miter" stroke="rgb(0,0,0)"><path d="M 306.3465,131.3894 c 0.0000,-1.8946 -1.5359,-3.4305 -3.4305 -3.4305c -1.8946,-0.0000 -3.4305,1.5359 -3.4305 3.4305c -0.0000,1.8946 1.5359,3.4305 3.4305 3.4305c 1.8946,0.0000 3.4305,-1.5359 3.4305 -3.4305Z"/></g><g stroke-linecap="butt" fill="rgb(0,0,0)" stroke-miterlimit="10.0" stroke-width="1.2236660044987921" fill-opacity="1.0" stroke-opacity="1.0" stroke-linejoin="miter" stroke="rgb(0,0,0)"><path d="M 306.3465,103.9451 c 0.0000,-1.8946 -1.5359,-3.4305 -3.4305 -3.4305c -1.8946,-0.0000 -3.4305,1.5359 -3.4305 3.4305c -0.0000,1.8946 1.5359,3.4305 3.4305 3.4305c 1.8946,0.0000 3.4305,-1.5359 3.4305 -3.4305Z"/></g><g stroke-linecap="butt" fill="rgb(0,0,0)" stroke-miterlimit="10.0" stroke-width="1.2236660044987921" fill-opacity="1.0" stroke-opacity="1.0" stroke-linejoin="miter" stroke="rgb(0,0,0)"><path d="M 306.3465,76.5009 c 0.0000,-1.8946 -1.5359,-3.4305 -3.4305 -3.4305c -1.8946,-0.0000 -3.4305,1.5359 -3.4305 3.4305c -0.0000,1.8946 1.5359,3.4305 3.4305 3.4305c 1.8946,0.0000 3.4305,-1.5359 3.4305 -3.4305Z"/></g><g stroke-linecap="butt" fill="rgb(0,0,0)" stroke-miterlimit="10.0" stroke-width="1.2236660044987921" fill-opacity="1.0" stroke-opacity="1.0" stroke-linejoin="miter" stroke="rgb(0,0,0)"><path d="M 306.3465,49.0566 c 0.0000,-1.8946 -1.5359,-3.4305 -3.4305 -3.4305c -1.8946,-0.0000 -3.4305,1.5359 -3.4305 3.4305c -0.0000,1.8946 1.5359,3.4305 3.4305 3.4305c 1.8946,0.0000 3.4305,-1.5359 3.4305 -3.4305Z"/></g><g stroke-linecap="butt" fill="rgb(0,0,0)" stroke-miterlimit="10.0" stroke-width="1.2236660044987921" fill-opacity="0.0" stroke-opacity="1.0" stroke-linejoin="miter" stroke="rgb(0,0,0)"><path d="M 261.7496,49.0566 l 13.7221,27.4443 "/></g><g stroke-linecap="butt" fill="rgb(0,0,0)" stroke-miterlimit="10.0" stroke-width="1.2236660044987921" fill-opacity="0.0" stroke-opacity="1.0" stroke-linejoin="miter" stroke="rgb(0,0,0)"><path d="M 261.7496,49.0566 l -13.7221,27.4443 "/></g><g stroke-linecap="butt" fill="rgb(0,0,0)" stroke-miterlimit="10.0" stroke-width="1.2236660044987921" fill-opacity="1.0" stroke-opacity="1.0" stroke-linejoin="miter" stroke="rgb(0,0,0)"><path d="M 278.9022,76.5009 c 0.0000,-1.8946 -1.5359,-3.4305 -3.4305 -3.4305c -1.8946,-0.0000 -3.4305,1.5359 -3.4305 3.4305c -0.0000,1.8946 1.5359,3.4305 3.4305 3.4305c 1.8946,0.0000 3.4305,-1.5359 3.4305 -3.4305Z"/></g><g stroke-linecap="butt" fill="rgb(0,0,0)" stroke-miterlimit="10.0" stroke-width="1.2236660044987921" fill-opacity="0.0" stroke-opacity="1.0" stroke-linejoin="miter" stroke="rgb(0,0,0)"><path d="M 248.0274,76.5009 l 13.7221,27.4443 "/></g><g stroke-linecap="butt" fill="rgb(0,0,0)" stroke-miterlimit="10.0" stroke-width="1.2236660044987921" fill-opacity="0.0" stroke-opacity="1.0" stroke-linejoin="miter" stroke="rgb(0,0,0)"><path d="M 248.0274,76.5009 l -13.7221,27.4443 "/></g><g stroke-linecap="butt" fill="rgb(0,0,0)" stroke-miterlimit="10.0" stroke-width="1.2236660044987921" fill-opacity="1.0" stroke-opacity="1.0" stroke-linejoin="miter" stroke="rgb(0,0,0)"><path d="M 265.1801,103.9451 c 0.0000,-1.8946 -1.5359,-3.4305 -3.4305 -3.4305c -1.8946,-0.0000 -3.4305,1.5359 -3.4305 3.4305c -0.0000,1.8946 1.5359,3.4305 3.4305 3.4305c 1.8946,0.0000 3.4305,-1.5359 3.4305 -3.4305Z"/></g><g stroke-linecap="butt" fill="rgb(0,0,0)" stroke-miterlimit="10.0" stroke-width="1.2236660044987921" fill-opacity="0.0" stroke-opacity="1.0" stroke-linejoin="miter" stroke="rgb(0,0,0)"><path d="M 234.3053,103.9451 l 13.7221,27.4443 "/></g><g stroke-linecap="butt" fill="rgb(0,0,0)" stroke-miterlimit="10.0" stroke-width="1.2236660044987921" fill-opacity="0.0" stroke-opacity="1.0" stroke-linejoin="miter" stroke="rgb(0,0,0)"><path d="M 234.3053,103.9451 l -13.7221,27.4443 "/></g><g stroke-linecap="butt" fill="rgb(0,0,0)" stroke-miterlimit="10.0" stroke-width="1.2236660044987921" fill-opacity="1.0" stroke-opacity="1.0" stroke-linejoin="miter" stroke="rgb(0,0,0)"><path d="M 251.4580,131.3894 c 0.0000,-1.8946 -1.5359,-3.4305 -3.4305 -3.4305c -1.8946,-0.0000 -3.4305,1.5359 -3.4305 3.4305c -0.0000,1.8946 1.5359,3.4305 3.4305 3.4305c 1.8946,0.0000 3.4305,-1.5359 3.4305 -3.4305Z"/></g><g stroke-linecap="butt" fill="rgb(0,0,0)" stroke-miterlimit="10.0" stroke-width="1.2236660044987921" fill-opacity="0.0" stroke-opacity="1.0" stroke-linejoin="miter" stroke="rgb(0,0,0)"><path d="M 220.5832,131.3894 l 13.7221,27.4443 "/></g><g stroke-linecap="butt" fill="rgb(0,0,0)" stroke-miterlimit="10.0" stroke-width="1.2236660044987921" fill-opacity="0.0" stroke-opacity="1.0" stroke-linejoin="miter" stroke="rgb(0,0,0)"><path d="M 220.5832,131.3894 l -13.7221,27.4443 "/></g><g stroke-linecap="butt" fill="rgb(0,0,0)" stroke-miterlimit="10.0" stroke-width="1.2236660044987921" fill-opacity="1.0" stroke-opacity="1.0" stroke-linejoin="miter" stroke="rgb(0,0,0)"><path d="M 237.7358,158.8336 c 0.0000,-1.8946 -1.5359,-3.4305 -3.4305 -3.4305c -1.8946,-0.0000 -3.4305,1.5359 -3.4305 3.4305c -0.0000,1.8946 1.5359,3.4305 3.4305 3.4305c 1.8946,0.0000 3.4305,-1.5359 3.4305 -3.4305Z"/></g><g stroke-linecap="butt" fill="rgb(0,0,0)" stroke-miterlimit="10.0" stroke-width="1.2236660044987921" fill-opacity="0.0" stroke-opacity="1.0" stroke-linejoin="miter" stroke="rgb(0,0,0)"><path d="M 206.8611,158.8336 l 13.7221,27.4443 "/></g><g stroke-linecap="butt" fill="rgb(0,0,0)" stroke-miterlimit="10.0" stroke-width="1.2236660044987921" fill-opacity="0.0" stroke-opacity="1.0" stroke-linejoin="miter" stroke="rgb(0,0,0)"><path d="M 206.8611,158.8336 l -13.7221,27.4443 "/></g><g stroke-linecap="butt" fill="rgb(0,0,0)" stroke-miterlimit="10.0" stroke-width="1.2236660044987921" fill-opacity="1.0" stroke-opacity="1.0" stroke-linejoin="miter" stroke="rgb(0,0,0)"><path d="M 224.0137,186.2779 c 0.0000,-1.8946 -1.5359,-3.4305 -3.4305 -3.4305c -1.8946,-0.0000 -3.4305,1.5359 -3.4305 3.4305c -0.0000,1.8946 1.5359,3.4305 3.4305 3.4305c 1.8946,0.0000 3.4305,-1.5359 3.4305 -3.4305Z"/></g><g stroke-linecap="butt" fill="rgb(0,0,0)" stroke-miterlimit="10.0" stroke-width="1.2236660044987921" fill-opacity="0.0" stroke-opacity="1.0" stroke-linejoin="miter" stroke="rgb(0,0,0)"><path d="M 193.1389,186.2779 l 13.7221,27.4443 "/></g><g stroke-linecap="butt" fill="rgb(0,0,0)" stroke-miterlimit="10.0" stroke-width="1.2236660044987921" fill-opacity="0.0" stroke-opacity="1.0" stroke-linejoin="miter" stroke="rgb(0,0,0)"><path d="M 193.1389,186.2779 l -13.7221,27.4443 "/></g><g stroke-linecap="butt" fill="rgb(0,0,0)" stroke-miterlimit="10.0" stroke-width="1.2236660044987921" fill-opacity="1.0" stroke-opacity="1.0" stroke-linejoin="miter" stroke="rgb(0,0,0)"><path d="M 210.2916,213.7221 c 0.0000,-1.8946 -1.5359,-3.4305 -3.4305 -3.4305c -1.8946,-0.0000 -3.4305,1.5359 -3.4305 3.4305c -0.0000,1.8946 1.5359,3.4305 3.4305 3.4305c 1.8946,0.0000 3.4305,-1.5359 3.4305 -3.4305Z"/></g><g stroke-linecap="butt" fill="rgb(0,0,0)" stroke-miterlimit="10.0" stroke-width="1.2236660044987921" fill-opacity="0.0" stroke-opacity="1.0" stroke-linejoin="miter" stroke="rgb(0,0,0)"><path d="M 179.4168,213.7221 l 13.7221,27.4443 "/></g><g stroke-linecap="butt" fill="rgb(0,0,0)" stroke-miterlimit="10.0" stroke-width="1.2236660044987921" fill-opacity="0.0" stroke-opacity="1.0" stroke-linejoin="miter" stroke="rgb(0,0,0)"><path d="M 179.4168,213.7221 l -13.7221,27.4443 "/></g><g stroke-linecap="butt" fill="rgb(0,0,0)" stroke-miterlimit="10.0" stroke-width="1.2236660044987921" fill-opacity="1.0" stroke-opacity="1.0" stroke-linejoin="miter" stroke="rgb(0,0,0)"><path d="M 196.5695,241.1664 c 0.0000,-1.8946 -1.5359,-3.4305 -3.4305 -3.4305c -1.8946,-0.0000 -3.4305,1.5359 -3.4305 3.4305c -0.0000,1.8946 1.5359,3.4305 3.4305 3.4305c 1.8946,0.0000 3.4305,-1.5359 3.4305 -3.4305Z"/></g><g stroke-linecap="butt" fill="rgb(0,0,0)" stroke-miterlimit="10.0" stroke-width="1.2236660044987921" fill-opacity="0.0" stroke-opacity="1.0" stroke-linejoin="miter" stroke="rgb(0,0,0)"><path d="M 165.6947,241.1664 l 13.7221,27.4443 "/></g><g stroke-linecap="butt" fill="rgb(0,0,0)" stroke-miterlimit="10.0" stroke-width="1.2236660044987921" fill-opacity="0.0" stroke-opacity="1.0" stroke-linejoin="miter" stroke="rgb(0,0,0)"><path d="M 165.6947,241.1664 l -13.7221,27.4443 "/></g><g stroke-linecap="butt" fill="rgb(0,0,0)" stroke-miterlimit="10.0" stroke-width="1.2236660044987921" fill-opacity="1.0" stroke-opacity="1.0" stroke-linejoin="miter" stroke="rgb(0,0,0)"><path d="M 182.8473,268.6106 c 0.0000,-1.8946 -1.5359,-3.4305 -3.4305 -3.4305c -1.8946,-0.0000 -3.4305,1.5359 -3.4305 3.4305c -0.0000,1.8946 1.5359,3.4305 3.4305 3.4305c 1.8946,0.0000 3.4305,-1.5359 3.4305 -3.4305Z"/></g><g stroke-linecap="butt" fill="rgb(0,0,0)" stroke-miterlimit="10.0" stroke-width="1.2236660044987921" fill-opacity="0.0" stroke-opacity="1.0" stroke-linejoin="miter" stroke="rgb(0,0,0)"><path d="M 151.9726,268.6106 l 13.7221,27.4443 "/></g><g stroke-linecap="butt" fill="rgb(0,0,0)" stroke-miterlimit="10.0" stroke-width="1.2236660044987921" fill-opacity="0.0" stroke-opacity="1.0" stroke-linejoin="miter" stroke="rgb(0,0,0)"><path d="M 151.9726,268.6106 l -13.7221,27.4443 "/></g><g stroke-linecap="butt" fill="rgb(0,0,0)" stroke-miterlimit="10.0" stroke-width="1.2236660044987921" fill-opacity="1.0" stroke-opacity="1.0" stroke-linejoin="miter" stroke="rgb(0,0,0)"><path d="M 169.1252,296.0549 c 0.0000,-1.8946 -1.5359,-3.4305 -3.4305 -3.4305c -1.8946,-0.0000 -3.4305,1.5359 -3.4305 3.4305c -0.0000,1.8946 1.5359,3.4305 3.4305 3.4305c 1.8946,0.0000 3.4305,-1.5359 3.4305 -3.4305Z"/></g><g stroke-linecap="butt" fill="rgb(0,0,0)" stroke-miterlimit="10.0" stroke-width="1.2236660044987921" fill-opacity="0.0" stroke-opacity="1.0" stroke-linejoin="miter" stroke="rgb(0,0,0)"><path d="M 138.2504,296.0549 l 13.7221,27.4443 "/></g><g stroke-linecap="butt" fill="rgb(0,0,0)" stroke-miterlimit="10.0" stroke-width="1.2236660044987921" fill-opacity="0.0" stroke-opacity="1.0" stroke-linejoin="miter" stroke="rgb(0,0,0)"><path d="M 138.2504,296.0549 l -13.7221,27.4443 "/></g><g stroke-linecap="butt" fill="rgb(0,0,0)" stroke-miterlimit="10.0" stroke-width="1.2236660044987921" fill-opacity="1.0" stroke-opacity="1.0" stroke-linejoin="miter" stroke="rgb(0,0,0)"><path d="M 155.4031,323.4991 c 0.0000,-1.8946 -1.5359,-3.4305 -3.4305 -3.4305c -1.8946,-0.0000 -3.4305,1.5359 -3.4305 3.4305c -0.0000,1.8946 1.5359,3.4305 3.4305 3.4305c 1.8946,0.0000 3.4305,-1.5359 3.4305 -3.4305Z"/></g><g stroke-linecap="butt" fill="rgb(0,0,0)" stroke-miterlimit="10.0" stroke-width="1.2236660044987921" fill-opacity="0.0" stroke-opacity="1.0" stroke-linejoin="miter" stroke="rgb(0,0,0)"><path d="M 124.5283,323.4991 l 13.7221,27.4443 "/></g><g stroke-linecap="butt" fill="rgb(0,0,0)" stroke-miterlimit="10.0" stroke-width="1.2236660044987921" fill-opacity="0.0" stroke-opacity="1.0" stroke-linejoin="miter" stroke="rgb(0,0,0)"><path d="M 124.5283,323.4991 l -13.7221,27.4443 "/></g><g stroke-linecap="butt" fill="rgb(0,0,0)" stroke-miterlimit="10.0" stroke-width="1.2236660044987921" fill-opacity="1.0" stroke-opacity="1.0" stroke-linejoin="miter" stroke="rgb(0,0,0)"><path d="M 141.6810,350.9434 c 0.0000,-1.8946 -1.5359,-3.4305 -3.4305 -3.4305c -1.8946,-0.0000 -3.4305,1.5359 -3.4305 3.4305c -0.0000,1.8946 1.5359,3.4305 3.4305 3.4305c 1.8946,0.0000 3.4305,-1.5359 3.4305 -3.4305Z"/></g><g stroke-linecap="butt" fill="rgb(0,0,0)" stroke-miterlimit="10.0" stroke-width="1.2236660044987921" fill-opacity="0.0" stroke-opacity="1.0" stroke-linejoin="miter" stroke="rgb(0,0,0)"><path d="M 110.8062,350.9434 l 13.7221,27.4443 "/></g><g stroke-linecap="butt" fill="rgb(0,0,0)" stroke-miterlimit="10.0" stroke-width="1.2236660044987921" fill-opacity="0.0" stroke-opacity="1.0" stroke-linejoin="miter" stroke="rgb(0,0,0)"><path d="M 110.8062,350.9434 l -13.7221,27.4443 "/></g><g stroke-linecap="butt" fill="rgb(0,0,0)" stroke-miterlimit="10.0" stroke-width="1.2236660044987921" fill-opacity="1.0" stroke-opacity="1.0" stroke-linejoin="miter" stroke="rgb(0,0,0)"><path d="M 127.9588,378.3877 c 0.0000,-1.8946 -1.5359,-3.4305 -3.4305 -3.4305c -1.8946,-0.0000 -3.4305,1.5359 -3.4305 3.4305c -0.0000,1.8946 1.5359,3.4305 3.4305 3.4305c 1.8946,0.0000 3.4305,-1.5359 3.4305 -3.4305Z"/></g><g stroke-linecap="butt" fill="rgb(0,0,0)" stroke-miterlimit="10.0" stroke-width="1.2236660044987921" fill-opacity="1.0" stroke-opacity="1.0" stroke-linejoin="miter" stroke="rgb(0,0,0)"><path d="M 100.5146,378.3877 c 0.0000,-1.8946 -1.5359,-3.4305 -3.4305 -3.4305c -1.8946,-0.0000 -3.4305,1.5359 -3.4305 3.4305c -0.0000,1.8946 1.5359,3.4305 3.4305 3.4305c 1.8946,0.0000 3.4305,-1.5359 3.4305 -3.4305Z"/></g><g stroke-linecap="butt" fill="rgb(0,0,0)" stroke-miterlimit="10.0" stroke-width="1.2236660044987921" fill-opacity="1.0" stroke-opacity="1.0" stroke-linejoin="miter" stroke="rgb(0,0,0)"><path d="M 114.2367,350.9434 c 0.0000,-1.8946 -1.5359,-3.4305 -3.4305 -3.4305c -1.8946,-0.0000 -3.4305,1.5359 -3.4305 3.4305c -0.0000,1.8946 1.5359,3.4305 3.4305 3.4305c 1.8946,0.0000 3.4305,-1.5359 3.4305 -3.4305Z"/></g><g stroke-linecap="butt" fill="rgb(0,0,0)" stroke-miterlimit="10.0" stroke-width="1.2236660044987921" fill-opacity="1.0" stroke-opacity="1.0" stroke-linejoin="miter" stroke="rgb(0,0,0)"><path d="M 127.9588,323.4991 c 0.0000,-1.8946 -1.5359,-3.4305 -3.4305 -3.4305c -1.8946,-0.0000 -3.4305,1.5359 -3.4305 3.4305c -0.0000,1.8946 1.5359,3.4305 3.4305 3.4305c 1.8946,0.0000 3.4305,-1.5359 3.4305 -3.4305Z"/></g><g stroke-linecap="butt" fill="rgb(0,0,0)" stroke-miterlimit="10.0" stroke-width="1.2236660044987921" fill-opacity="1.0" stroke-opacity="1.0" stroke-linejoin="miter" stroke="rgb(0,0,0)"><path d="M 141.6810,296.0549 c 0.0000,-1.8946 -1.5359,-3.4305 -3.4305 -3.4305c -1.8946,-0.0000 -3.4305,1.5359 -3.4305 3.4305c -0.0000,1.8946 1.5359,3.4305 3.4305 3.4305c 1.8946,0.0000 3.4305,-1.5359 3.4305 -3.4305Z"/></g><g stroke-linecap="butt" fill="rgb(0,0,0)" stroke-miterlimit="10.0" stroke-width="1.2236660044987921" fill-opacity="1.0" stroke-opacity="1.0" stroke-linejoin="miter" stroke="rgb(0,0,0)"><path d="M 155.4031,268.6106 c 0.0000,-1.8946 -1.5359,-3.4305 -3.4305 -3.4305c -1.8946,-0.0000 -3.4305,1.5359 -3.4305 3.4305c -0.0000,1.8946 1.5359,3.4305 3.4305 3.4305c 1.8946,0.0000 3.4305,-1.5359 3.4305 -3.4305Z"/></g><g stroke-linecap="butt" fill="rgb(0,0,0)" stroke-miterlimit="10.0" stroke-width="1.2236660044987921" fill-opacity="1.0" stroke-opacity="1.0" stroke-linejoin="miter" stroke="rgb(0,0,0)"><path d="M 169.1252,241.1664 c 0.0000,-1.8946 -1.5359,-3.4305 -3.4305 -3.4305c -1.8946,-0.0000 -3.4305,1.5359 -3.4305 3.4305c -0.0000,1.8946 1.5359,3.4305 3.4305 3.4305c 1.8946,0.0000 3.4305,-1.5359 3.4305 -3.4305Z"/></g><g stroke-linecap="butt" fill="rgb(0,0,0)" stroke-miterlimit="10.0" stroke-width="1.2236660044987921" fill-opacity="1.0" stroke-opacity="1.0" stroke-linejoin="miter" stroke="rgb(0,0,0)"><path d="M 182.8473,213.7221 c 0.0000,-1.8946 -1.5359,-3.4305 -3.4305 -3.4305c -1.8946,-0.0000 -3.4305,1.5359 -3.4305 3.4305c -0.0000,1.8946 1.5359,3.4305 3.4305 3.4305c 1.8946,0.0000 3.4305,-1.5359 3.4305 -3.4305Z"/></g><g stroke-linecap="butt" fill="rgb(0,0,0)" stroke-miterlimit="10.0" stroke-width="1.2236660044987921" fill-opacity="1.0" stroke-opacity="1.0" stroke-linejoin="miter" stroke="rgb(0,0,0)"><path d="M 196.5695,186.2779 c 0.0000,-1.8946 -1.5359,-3.4305 -3.4305 -3.4305c -1.8946,-0.0000 -3.4305,1.5359 -3.4305 3.4305c -0.0000,1.8946 1.5359,3.4305 3.4305 3.4305c 1.8946,0.0000 3.4305,-1.5359 3.4305 -3.4305Z"/></g><g stroke-linecap="butt" fill="rgb(0,0,0)" stroke-miterlimit="10.0" stroke-width="1.2236660044987921" fill-opacity="1.0" stroke-opacity="1.0" stroke-linejoin="miter" stroke="rgb(0,0,0)"><path d="M 210.2916,158.8336 c 0.0000,-1.8946 -1.5359,-3.4305 -3.4305 -3.4305c -1.8946,-0.0000 -3.4305,1.5359 -3.4305 3.4305c -0.0000,1.8946 1.5359,3.4305 3.4305 3.4305c 1.8946,0.0000 3.4305,-1.5359 3.4305 -3.4305Z"/></g><g stroke-linecap="butt" fill="rgb(0,0,0)" stroke-miterlimit="10.0" stroke-width="1.2236660044987921" fill-opacity="1.0" stroke-opacity="1.0" stroke-linejoin="miter" stroke="rgb(0,0,0)"><path d="M 224.0137,131.3894 c 0.0000,-1.8946 -1.5359,-3.4305 -3.4305 -3.4305c -1.8946,-0.0000 -3.4305,1.5359 -3.4305 3.4305c -0.0000,1.8946 1.5359,3.4305 3.4305 3.4305c 1.8946,0.0000 3.4305,-1.5359 3.4305 -3.4305Z"/></g><g stroke-linecap="butt" fill="rgb(0,0,0)" stroke-miterlimit="10.0" stroke-width="1.2236660044987921" fill-opacity="1.0" stroke-opacity="1.0" stroke-linejoin="miter" stroke="rgb(0,0,0)"><path d="M 237.7358,103.9451 c 0.0000,-1.8946 -1.5359,-3.4305 -3.4305 -3.4305c -1.8946,-0.0000 -3.4305,1.5359 -3.4305 3.4305c -0.0000,1.8946 1.5359,3.4305 3.4305 3.4305c 1.8946,0.0000 3.4305,-1.5359 3.4305 -3.4305Z"/></g><g stroke-linecap="butt" fill="rgb(0,0,0)" stroke-miterlimit="10.0" stroke-width="1.2236660044987921" fill-opacity="1.0" stroke-opacity="1.0" stroke-linejoin="miter" stroke="rgb(0,0,0)"><path d="M 251.4580,76.5009 c 0.0000,-1.8946 -1.5359,-3.4305 -3.4305 -3.4305c -1.8946,-0.0000 -3.4305,1.5359 -3.4305 3.4305c -0.0000,1.8946 1.5359,3.4305 3.4305 3.4305c 1.8946,0.0000 3.4305,-1.5359 3.4305 -3.4305Z"/></g><g stroke-linecap="butt" fill="rgb(0,0,0)" stroke-miterlimit="10.0" stroke-width="1.2236660044987921" fill-opacity="1.0" stroke-opacity="1.0" stroke-linejoin="miter" stroke="rgb(0,0,0)"><path d="M 265.1801,49.0566 c 0.0000,-1.8946 -1.5359,-3.4305 -3.4305 -3.4305c -1.8946,-0.0000 -3.4305,1.5359 -3.4305 3.4305c -0.0000,1.8946 1.5359,3.4305 3.4305 3.4305c 1.8946,0.0000 3.4305,-1.5359 3.4305 -3.4305Z"/></g><g stroke-linecap="butt" fill="rgb(0,0,0)" stroke-miterlimit="10.0" stroke-width="1.2236660044987921" fill-opacity="1.0" stroke-opacity="1.0" stroke-linejoin="miter" stroke="rgb(0,0,0)"><path d="M 285.7633,21.6123 c 0.0000,-1.8946 -1.5359,-3.4305 -3.4305 -3.4305c -1.8946,-0.0000 -3.4305,1.5359 -3.4305 3.4305c -0.0000,1.8946 1.5359,3.4305 3.4305 3.4305c 1.8946,0.0000 3.4305,-1.5359 3.4305 -3.4305Z"/></g></svg>