<?xml version="1.0" encoding="UTF-8"?>
<!DOCTYPE svg PUBLIC "-//W3C//DTD SVG 1.1//EN"
    "http://www.w3.org/Graphics/SVG/1.1/DTD/svg11.dtd"><svg font-size="1" viewBox="0.0 0.0 400.0 400.0" stroke="rgb(0,0,0)" xmlns="http://www.w3.org/2000/svg" width="400.0000" stroke-opacity="1" height="400.0000" version="1.1" xmlns:xlink="http://www.w3.org/1999/xlink"><defs></defs><g stroke-linejoin="miter" fill-opacity="0.0" fill="rgb(0,0,0)" stroke="rgb(0,0,0)" stroke-linecap="butt" stroke-miterlimit="10.0" stroke-opacity="1.0" stroke-width="0.9797958971132713"><path d="M 135.0649,21.4286 v 32.4675 "/></g><g stroke-linejoin="miter" fill-opacity="0.0" fill="rgb(0,0,0)" stroke="rgb(0,0,0)" stroke-linecap="butt" stroke-miterlimit="10.0" stroke-opacity="1.0" stroke-width="0.9797958971132713"><path d="M 135.0649,21.4286 l 97.4026,32.4675 "/></g><g stroke-linejoin="miter" fill-opacity="0.0" fill="rgb(0,0,0)" stroke="rgb(0,0,0)" stroke-linecap="butt" stroke-miterlimit="10.0" stroke-opacity="1.0" stroke-width="0.9797958971132713"><path d="M 232.4675,53.8961 v 32.4675 "/></g><g stroke-linejoin="miter" fill-opacity="0.0" fill="rgb(0,0,0)" stroke="rgb(0,0,0)" stroke-linecap="butt" stroke-miterlimit="10.0" stroke-opacity="1.0" stroke-width="0.9797958971132713"><path d="M 232.4675,86.3636 v 32.4675 "/></g><g stroke-linejoin="miter" fill-opacity="0.0" fill="rgb(0,0,0)" stroke="rgb(0,0,0)" stroke-linecap="butt" stroke-miterlimit="10.0" stroke-opacity="1.0" stroke-width="0.9797958971132713"><path d="M 232.4675,118.8312 v 32.4675 "/></g><g stroke-linejoin="miter" fill-opacity="0.0" fill="rgb(0,0,0)" stroke="rgb(0,0,0)" stroke-linecap="butt" stroke-miterlimit="10.0" stroke-opacity="1.0" stroke-width="0.9797958971132713"><path d="M 232.4675,151.2987 v 32.4675 "/></g><g stroke-linejoin="miter" fill-opacity="0.0" fill="rgb(0,0,0)" stroke="rgb(0,0,0)" stroke-linecap="butt" stroke-miterlimit="10.0" stroke-opacity="1.0" stroke-width="0.9797958971132713"><path d="M 232.4675,151.2987 l 32.4675,32.4675 "/></g><g stroke-linejoin="miter" fill-opacity="0.0" fill="rgb(0,0,0)" stroke="rgb(0,0,0)" stroke-linecap="butt" stroke-miterlimit="10.0" stroke-opacity="1.0" stroke-width="0.9797958971132713"><path d="M 264.9351,183.7662 v 32.4675 "/></g><g stroke-linejoin="miter" fill-opacity="0.0" fill="rgb(0,0,0)" stroke="rgb(0,0,0)" stroke-linecap="butt" stroke-miterlimit="10.0" stroke-opacity="1.0" stroke-width="0.9797958971132713"><path d="M 264.9351,216.2338 v 32.4675 "/></g><g stroke-linejoin="miter" fill-opacity="1.0" fill="rgb(0,0,0)" stroke="rgb(0,0,0)" stroke-linecap="butt" stroke-miterlimit="10.0" stroke-opacity="1.0" stroke-width="0.9797958971132713"><path d="M 268.1818,248.7013 c 0.0000,-1.7931 -1.4536,-3.2468 -3.2468 -3.2468c -1.7931,-0.0000 -3.2468,1.4536 -3.2468 3.2468c -0.0000,1.7931 1.4536,3.2468 3.2468 3.2468c 1.7931,0.0000 3.2468,-1.4536 3.2468 -3.2468Z"/></g><g stroke-linejoin="miter" fill-opacity="1.0" fill="rgb(0,0,0)" stroke="rgb(0,0,0)" stroke-linecap="butt" stroke-miterlimit="10.0" stroke-opacity="1.0" stroke-width="0.9797958971132713"><path d="M 268.1818,216.2338 c 0.0000,-1.7931 -1.4536,-3.2468 -3.2468 -3.2468c -1.7931,-0.0000 -3.2468,1.4536 -3.2468 3.2468c -0.0000,1.7931 1.4536,3.2468 3.2468 3.2468c 1.7931,0.0000 3.2468,-1.4536 3.2468 -3.2468Z"/></g><g stroke-linejoin="miter" fill-opacity="1.0" fill="rgb(0,0,0)" stroke="rgb(0,0,0)" stroke-linecap="butt" stroke-miterlimit="10.0" stroke-opacity="1.0" stroke-width="0.9797958971132713"><path d="M 268.1818,183.7662 c 0.0000,-1.7931 -1.4536,-3.2468 -3.2468 -3.2468c -1.7931,-0.0000 -3.2468,1.4536 -3.2468 3.2468c -0.0000,1.7931 1.4536,3.2468 3.2468 3.2468c 1.7931,0.0000 3.2468,-1.4536 3.2468 -3.2468Z"/></g><g stroke-linejoin="miter" fill-opacity="0.0" fill="rgb(0,0,0)" stroke="rgb(0,0,0)" stroke-linecap="butt" stroke-miterlimit="10.0" stroke-opacity="1.0" stroke-width="0.9797958971132713"><path d="M 232.4675,183.7662 v 32.4675 "/></g><g stroke-linejoin="miter" fill-opacity="0.0" fill="rgb(0,0,0)" stroke="rgb(0,0,0)" stroke-linecap="butt" stroke-miterlimit="10.0" stroke-opacity="1.0" stroke-width="0.9797958971132713"><path d="M 232.4675,216.2338 v 32.4675 "/></g><g stroke-linejoin="miter" fill-opacity="0.0" fill="rgb(0,0,0)" stroke="rgb(0,0,0)" stroke-linecap="butt" stroke-miterlimit="10.0" stroke-opacity="1.0" stroke-width="0.9797958971132713"><path d="M 232.4675,248.7013 v 32.4675 "/></g><g stroke-linejoin="miter" fill-opacity="0.0" fill="rgb(0,0,0)" stroke="rgb(0,0,0)" stroke-linecap="butt" stroke-miterlimit="10.0" stroke-opacity="1.0" stroke-width="0.9797958971132713"><path d="M 232.4675,281.1688 v 32.4675 "/></g><g stroke-linejoin="miter" fill-opacity="0.0" fill="rgb(0,0,0)" stroke="rgb(0,0,0)" stroke-linecap="butt" stroke-miterlimit="10.0" stroke-opacity="1.0" stroke-width="0.9797958971132713"><path d="M 232.4675,313.6364 v 32.4675 "/></g><g stroke-linejoin="miter" fill-opacity="1.0" fill="rgb(0,0,0)" stroke="rgb(0,0,0)" stroke-linecap="butt" stroke-miterlimit="10.0" stroke-opacity="1.0" stroke-width="0.9797958971132713"><path d="M 235.7143,346.1039 c 0.0000,-1.7931 -1.4536,-3.2468 -3.2468 -3.2468c -1.7931,-0.0000 -3.2468,1.4536 -3.2468 3.2468c -0.0000,1.7931 1.4536,3.2468 3.2468 3.2468c 1.7931,0.0000 3.2468,-1.4536 3.2468 -3.2468Z"/></g><g stroke-linejoin="miter" fill-opacity="1.0" fill="rgb(0,0,0)" stroke="rgb(0,0,0)" stroke-linecap="butt" stroke-miterlimit="10.0" stroke-opacity="1.0" stroke-width="0.9797958971132713"><path d="M 235.7143,313.6364 c 0.0000,-1.7931 -1.4536,-3.2468 -3.2468 -3.2468c -1.7931,-0.0000 -3.2468,1.4536 -3.2468 3.2468c -0.0000,1.7931 1.4536,3.2468 3.2468 3.2468c 1.7931,0.0000 3.2468,-1.4536 3.2468 -3.2468Z"/></g><g stroke-linejoin="miter" fill-opacity="1.0" fill="rgb(0,0,0)" stroke="rgb(0,0,0)" stroke-linecap="butt" stroke-miterlimit="10.0" stroke-opacity="1.0" stroke-width="0.9797958971132713"><path d="M 235.7143,281.1688 c 0.0000,-1.7931 -1.4536,-3.2468 -3.2468 -3.2468c -1.7931,-0.0000 -3.2468,1.4536 -3.2468 3.2468c -0.0000,1.7931 1.4536,3.2468 3.2468 3.2468c 1.7931,0.0000 3.2468,-1.4536 3.2468 -3.2468Z"/></g><g stroke-linejoin="miter" fill-opacity="1.0" fill="rgb(0,0,0)" stroke="rgb(0,0,0)" stroke-linecap="butt" stroke-miterlimit="10.0" stroke-opacity="1.0" stroke-width="0.9797958971132713"><path d="M 235.7143,248.7013 c 0.0000,-1.7931 -1.4536,-3.2468 -3.2468 -3.2468c -1.7931,-0.0000 -3.2468,1.4536 -3.2468 3.2468c -0.0000,1.7931 1.4536,3.2468 3.2468 3.2468c 1.7931,0.0000 3.2468,-1.4536 3.2468 -3.2468Z"/></g><g stroke-linejoin="miter" fill-opacity="1.0" fill="rgb(0,0,0)" stroke="rgb(0,0,0)" stroke-linecap="butt" stroke-miterlimit="10.0" stroke-opacity="1.0" stroke-width="0.9797958971132713"><path d="M 235.7143,216.2338 c 0.0000,-1.7931 -1.4536,-3.2468 -3.2468 -3.2468c -1.7931,-0.0000 -3.2468,1.4536 -3.2468 3.2468c -0.0000,1.7931 1.4536,3.2468 3.2468 3.2468c 1.7931,0.0000 3.2468,-1.4536 3.2468 -3.2468Z"/></g><g stroke-linejoin="miter" fill-opacity="1.0" fill="rgb(0,0,0)" stroke="rgb(0,0,0)" stroke-linecap="butt" stroke-miterlimit="10.0" stroke-opacity="1.0" stroke-width="0.9797958971132713"><path d="M 235.7143,183.7662 c 0.0000,-1.7931 -1.4536,-3.2468 -3.2468 -3.2468c -1.7931,-0.0000 -3.2468,1.4536 -3.2468 3.2468c -0.0000,1.7931 1.4536,3.2468 3.2468 3.2468c 1.7931,0.0000 3.2468,-1.4536 3.2468 -3.2468Z"/></g><g stroke-linejoin="miter" fill-opacity="1.0" fill="rgb(0,0,0)" stroke="rgb(0,0,0)" stroke-linecap="butt" stroke-miterlimit="10.0" stroke-opacity="1.0" stroke-width="0.9797958971132713"><path d="M 235.7143,151.2987 c 0.0000,-1.7931 -1.4536,-3.2468 -3.2468 -3.2468c -1.7931,-0.0000 -3.2468,1.4536 -3.2468 3.2468c -0.0000,1.7931 1.4536,3.2468 3.2468 3.2468c 1.7931,0.0000 3.2468,-1.4536 3.2468 -3.2468Z"/></g><g stroke-linejoin="miter" fill-opacity="1.0" fill="rgb(0,0,0)" stroke="rgb(0,0,0)" stroke-linecap="butt" stroke-miterlimit="10.0" stroke-opacity="1.0" stroke-width="0.9797958971132713"><path d="M 235.7143,118.8312 c 0.0000,-1.7931 -1.4536,-3.2468 -3.2468 -3.2468c -1.7931,-0.0000 -3.2468,1.4536 -3.2468 3.2468c -0.0000,1.7931 1.4536,3.2468 3.2468 3.2468c 1.7931,0.0000 3.2468,-1.4536 3.2468 -3.2468Z"/></g><g stroke-linejoin="miter" fill-opacity="1.0" fill="rgb(0,0,0)" stroke="rgb(0,0,0)" stroke-linecap="butt" stroke-miterlimit="10.0" stroke-opacity="1.0" stroke-width="0.9797958971132713"><path d="M 235.7143,86.3636 c 0.0000,-1.7931 -1.4536,-3.2468 -3.2468 -3.2468c -1.7931,-0.0000 -3.2468,1.4536 -3.2468 3.2468c -0.0000,1.7931 1.4536,3.2468 3.2468 3.2468c 1.7931,0.0000 3.2468,-1.4536 3.2468 -3.2468Z"/></g><g stroke-linejoin="miter" fill-opacity="1.0" fill="rgb(0,0,0)" stroke="rgb(0,0,0)" stroke-linecap="butt" stroke-miterlimit="10.0" stroke-opacity="1.0" stroke-width="0.9797958971132713"><path d="M 235.7143,53.8961 c 0.0000,-1.7931 -1.4536,-3.2468 -3.2468 -3.2468c -1.7931,-0.0000 -3.2468,1.4536 -3.2468 3.2468c -0.0000,1.7931 1.4536,3.2468 3.2468 3.2468c 1.7931,0.0000 3.2468,-1.4536 3.2468 -3.2468Z"/></g><g stroke-linejoin="miter" fill-opacity="0.0" fill="rgb(0,0,0)" stroke="rgb(0,0,0)" stroke-linecap="butt" stroke-miterlimit="10.0" stroke-opacity="1.0" stroke-width="0.9797958971132713"><path d="M 135.0649,53.8961 v 32.4675 "/></g><g stroke-linejoin="miter" fill-opacity="0.0" fill="rgb(0,0,0)" stroke="rgb(0,0,0)" stroke-linecap="butt" stroke-miterlimit="10.0" stroke-opacity="1.0" stroke-width="0.9797958971132713"><path d="M 135.0649,86.3636 v 32.4675 "/></g><g stroke-linejoin="miter" fill-opacity="0.0" fill="rgb(0,0,0)" stroke="rgb(0,0,0)" stroke-linecap="butt" stroke-miterlimit="10.0" stroke-opacity="1.0" stroke-width="0.9797958971132713"><path d="M 135.0649,118.8312 v 32.4675 "/></g><g stroke-linejoin="miter" fill-opacity="0.0" fill="rgb(0,0,0)" stroke="rgb(0,0,0)" stroke-linecap="butt" stroke-miterlimit="10.0" stroke-opacity="1.0" stroke-width="0.9797958971132713"><path d="M 135.0649,118.8312 l 32.4675,32.4675 "/></g><g stroke-linejoin="miter" fill-opacity="0.0" fill="rgb(0,0,0)" stroke="rgb(0,0,0)" stroke-linecap="butt" stroke-miterlimit="10.0" stroke-opacity="1.0" stroke-width="0.9797958971132713"><path d="M 167.5325,151.2987 v 32.4675 "/></g><g stroke-linejoin="miter" fill-opacity="0.0" fill="rgb(0,0,0)" stroke="rgb(0,0,0)" stroke-linecap="butt" stroke-miterlimit="10.0" stroke-opacity="1.0" stroke-width="0.9797958971132713"><path d="M 167.5325,183.7662 v 32.4675 "/></g><g stroke-linejoin="miter" fill-opacity="0.0" fill="rgb(0,0,0)" stroke="rgb(0,0,0)" stroke-linecap="butt" stroke-miterlimit="10.0" stroke-opacity="1.0" stroke-width="0.9797958971132713"><path d="M 167.5325,216.2338 v 32.4675 "/></g><g stroke-linejoin="miter" fill-opacity="0.0" fill="rgb(0,0,0)" stroke="rgb(0,0,0)" stroke-linecap="butt" stroke-miterlimit="10.0" stroke-opacity="1.0" stroke-width="0.9797958971132713"><path d="M 167.5325,216.2338 l 32.4675,32.4675 "/></g><g stroke-linejoin="miter" fill-opacity="0.0" fill="rgb(0,0,0)" stroke="rgb(0,0,0)" stroke-linecap="butt" stroke-miterlimit="10.0" stroke-opacity="1.0" stroke-width="0.9797958971132713"><path d="M 200.0000,248.7013 v 32.4675 "/></g><g stroke-linejoin="miter" fill-opacity="1.0" fill="rgb(0,0,0)" stroke="rgb(0,0,0)" stroke-linecap="butt" stroke-miterlimit="10.0" stroke-opacity="1.0" stroke-width="0.9797958971132713"><path d="M 203.2468,281.1688 c 0.0000,-1.7931 -1.4536,-3.2468 -3.2468 -3.2468c -1.7931,-0.0000 -3.2468,1.4536 -3.2468 3.2468c -0.0000,1.7931 1.4536,3.2468 3.2468 3.2468c 1.7931,0.0000 3.2468,-1.4536 3.2468 -3.2468Z"/></g><g stroke-linejoin="miter" fill-opacity="1.0" fill="rgb(0,0,0)" stroke="rgb(0,0,0)" stroke-linecap="butt" stroke-miterlimit="10.0" stroke-opacity="1.0" stroke-width="0.9797958971132713"><path d="M 203.2468,248.7013 c 0.0000,-1.7931 -1.4536,-3.2468 -3.2468 -3.2468c -1.7931,-0.0000 -3.2468,1.4536 -3.2468 3.2468c -0.0000,1.7931 1.4536,3.2468 3.2468 3.2468c 1.7931,0.0000 3.2468,-1.4536 3.2468 -3.2468Z"/></g><g stroke-linejoin="miter" fill-opacity="0.0" fill="rgb(0,0,0)" stroke="rgb(0,0,0)" stroke-linecap="butt" stroke-miterlimit="10.0" stroke-opacity="1.0" stroke-width="0.9797958971132713"><path d="M 167.5325,248.7013 v 32.4675 "/></g><g stroke-linejoin="miter" fill-opacity="0.0" fill="rgb(0,0,0)" stroke="rgb(0,0,0)" stroke-linecap="butt" stroke-miterlimit="10.0" stroke-opacity="1.0" stroke-width="0.9797958971132713"><path d="M 167.5325,281.1688 v 32.4675 "/></g><g stroke-linejoin="miter" fill-opacity="1.0" fill="rgb(0,0,0)" stroke="rgb(0,0,0)" stroke-linecap="butt" stroke-miterlimit="10.0" stroke-opacity="1.0" stroke-width="0.9797958971132713"><path d="M 170.7792,313.6364 c 0.0000,-1.7931 -1.4536,-3.2468 -3.2468 -3.2468c -1.7931,-0.0000 -3.2468,1.4536 -3.2468 3.2468c -0.0000,1.7931 1.4536,3.2468 3.2468 3.2468c 1.7931,0.0000 3.2468,-1.4536 3.2468 -3.2468Z"/></g><g stroke-linejoin="miter" fill-opacity="1.0" fill="rgb(0,0,0)" stroke="rgb(0,0,0)" stroke-linecap="butt" stroke-miterlimit="10.0" stroke-opacity="1.0" stroke-width="0.9797958971132713"><path d="M 170.7792,281.1688 c 0.0000,-1.7931 -1.4536,-3.2468 -3.2468 -3.2468c -1.7931,-0.0000 -3.2468,1.4536 -3.2468 3.2468c -0.0000,1.7931 1.4536,3.2468 3.2468 3.2468c 1.7931,0.0000 3.2468,-1.4536 3.2468 -3.2468Z"/></g><g stroke-linejoin="miter" fill-opacity="1.0" fill="rgb(0,0,0)" stroke="rgb(0,0,0)" stroke-linecap="butt" stroke-miterlimit="10.0" stroke-opacity="1.0" stroke-width="0.9797958971132713"><path d="M 170.7792,248.7013 c 0.0000,-1.7931 -1.4536,-3.2468 -3.2468 -3.2468c -1.7931,-0.0000 -3.2468,1.4536 -3.2468 3.2468c -0.0000,1.7931 1.4536,3.2468 3.2468 3.2468c 1.7931,0.0000 3.2468,-1.4536 3.2468 -3.2468Z"/></g><g stroke-linejoin="miter" fill-opacity="1.0" fill="rgb(0,0,0)" stroke="rgb(0,0,0)" stroke-linecap="butt" stroke-miterlimit="10.0" stroke-opacity="1.0" stroke-width="0.9797958971132713"><path d="M 170.7792,216.2338 c 0.0000,-1.7931 -1.4536,-3.2468 -3.2468 -3.2468c -1.7931,-0.0000 -3.2468,1.4536 -3.2468 3.2468c -0.0000,1.7931 1.4536,3.2468 3.2468 3.2468c 1.7931,0.0000 3.2468,-1.4536 3.2468 -3.2468Z"/></g><g stroke-linejoin="miter" fill-opacity="1.0" fill="rgb(0,0,0)" stroke="rgb(0,0,0)" stroke-linecap="butt" stroke-miterlimit="10.0" stroke-opacity="1.0" stroke-width="0.9797958971132713"><path d="M 170.7792,183.7662 c 0.0000,-1.7931 -1.4536,-3.2468 -3.2468 -3.2468c -1.7931,-0.0000 -3.2468,1.4536 -3.2468 3.2468c -0.0000,1.7931 1.4536,3.2468 3.2468 3.2468c 1.7931,0.0000 3.2468,-1.4536 3.2468 -3.2468Z"/></g><g stroke-linejoin="miter" fill-opacity="1.0" fill="rgb(0,0,0)" stroke="rgb(0,0,0)" stroke-linecap="butt" stroke-miterlimit="10.0" stroke-opacity="1.0" stroke-width="0.9797958971132713"><path d="M 170.7792,151.2987 c 0.0000,-1.7931 -1.4536,-3.2468 -3.2468 -3.2468c -1.7931,-0.0000 -3.2468,1.4536 -3.2468 3.2468c -0.0000,1.7931 1.4536,3.2468 3.2468 3.2468c 1.7931,0.0000 3.2468,-1.4536 3.2468 -3.2468Z"/></g><g stroke-linejoin="miter" fill-opacity="0.0" fill="rgb(0,0,0)" stroke="rgb(0,0,0)" stroke-linecap="butt" stroke-miterlimit="10.0" stroke-opacity="1.0" stroke-width="0.9797958971132713"><path d="M 135.0649,151.2987 v 32.4675 "/></g><g stroke-linejoin="miter" fill-opacity="0.0" fill="rgb(0,0,0)" stroke="rgb(0,0,0)" stroke-linecap="butt" stroke-miterlimit="10.0" stroke-opacity="1.0" stroke-width="0.9797958971132713"><path d="M 135.0649,183.7662 v 32.4675 "/></g><g stroke-linejoin="miter" fill-opacity="0.0" fill="rgb(0,0,0)" stroke="rgb(0,0,0)" stroke-linecap="butt" stroke-miterlimit="10.0" stroke-opacity="1.0" stroke-width="0.9797958971132713"><path d="M 135.0649,216.2338 v 32.4675 "/></g><g stroke-linejoin="miter" fill-opacity="0.0" fill="rgb(0,0,0)" stroke="rgb(0,0,0)" stroke-linecap="butt" stroke-miterlimit="10.0" stroke-opacity="1.0" stroke-width="0.9797958971132713"><path d="M 135.0649,248.7013 v 32.4675 "/></g><g stroke-linejoin="miter" fill-opacity="0.0" fill="rgb(0,0,0)" stroke="rgb(0,0,0)" stroke-linecap="butt" stroke-miterlimit="10.0" stroke-opacity="1.0" stroke-width="0.9797958971132713"><path d="M 135.0649,281.1688 v 32.4675 "/></g><g stroke-linejoin="miter" fill-opacity="0.0" fill="rgb(0,0,0)" stroke="rgb(0,0,0)" stroke-linecap="butt" stroke-miterlimit="10.0" stroke-opacity="1.0" stroke-width="0.9797958971132713"><path d="M 135.0649,313.6364 v 32.4675 "/></g><g stroke-linejoin="miter" fill-opacity="0.0" fill="rgb(0,0,0)" stroke="rgb(0,0,0)" stroke-linecap="butt" stroke-miterlimit="10.0" stroke-opacity="1.0" stroke-width="0.9797958971132713"><path d="M 135.0649,346.1039 v 32.4675 "/></g><g stroke-linejoin="miter" fill-opacity="1.0" fill="rgb(0,0,0)" stroke="rgb(0,0,0)" stroke-linecap="butt" stroke-miterlimit="10.0" stroke-opacity="1.0" stroke-width="0.9797958971132713"><path d="M 138.3117,378.5714 c 0.0000,-1.7931 -1.4536,-3.2468 -3.2468 -3.2468c -1.7931,-0.0000 -3.2468,1.4536 -3.2468 3.2468c -0.0000,1.7931 1.4536,3.2468 3.2468 3.2468c 1.7931,0.0000 3.2468,-1.4536 3.2468 -3.2468Z"/></g><g stroke-linejoin="miter" fill-opacity="1.0" fill="rgb(0,0,0)" stroke="rgb(0,0,0)" stroke-linecap="butt" stroke-miterlimit="10.0" stroke-opacity="1.0" stroke-width="0.9797958971132713"><path d="M 138.3117,346.1039 c 0.0000,-1.7931 -1.4536,-3.2468 -3.2468 -3.2468c -1.7931,-0.0000 -3.2468,1.4536 -3.2468 3.2468c -0.0000,1.7931 1.4536,3.2468 3.2468 3.2468c 1.7931,0.0000 3.2468,-1.4536 3.2468 -3.2468Z"/></g><g stroke-linejoin="miter" fill-opacity="1.0" fill="rgb(0,0,0)" stroke="rgb(0,0,0)" stroke-linecap="butt" stroke-miterlimit="10.0" stroke-opacity="1.0" stroke-width="0.9797958971132713"><path d="M 138.3117,313.6364 c 0.0000,-1.7931 -1.4536,-3.2468 -3.2468 -3.2468c -1.7931,-0.0000 -3.2468,1.4536 -3.2468 3.2468c -0.0000,1.7931 1.4536,3.2468 3.2468 3.2468c 1.7931,0.0000 3.2468,-1.4536 3.2468 -3.2468Z"/></g><g stroke-linejoin="miter" fill-opacity="1.0" fill="rgb(0,0,0)" stroke="rgb(0,0,0)" stroke-linecap="butt" stroke-miterlimit="10.0" stroke-opacity="1.0" stroke-width="0.9797958971132713"><path d="M 138.3117,281.1688 c 0.0000,-1.7931 -1.4536,-3.2468 -3.2468 -3.2468c -1.7931,-0.0000 -3.2468,1.4536 -3.2468 3.2468c -0.0000,1.7931 1.4536,3.2468 3.2468 3.2468c 1.7931,0.0000 3.2468,-1.4536 3.2468 -3.2468Z"/></g><g stroke-linejoin="miter" fill-opacity="1.0" fill="rgb(0,0,0)" stroke="rgb(0,0,0)" stroke-linecap="butt" stroke-miterlimit="10.0" stroke-opacity="1.0" stroke-width="0.9797958971132713"><path d="M 138.3117,248.7013 c 0.0000,-1.7931 -1.4536,-3.2468 -3.2468 -3.2468c -1.7931,-0.0000 -3.2468,1.4536 -3.2468 3.2468c -0.0000,1.7931 1.4536,3.2468 3.2468 3.2468c 1.7931,0.0000 3.2468,-1.4536 3.2468 -3.2468Z"/></g><g stroke-linejoin="miter" fill-opacity="1.0" fill="rgb(0,0,0)" stroke="rgb(0,0,0)" stroke-linecap="butt" stroke-miterlimit="10.0" stroke-opacity="1.0" stroke-width="0.9797958971132713"><path d="M 138.3117,216.2338 c 0.0000,-1.7931 -1.4536,-3.2468 -3.2468 -3.2468c -1.7931,-0.0000 -3.2468,1.4536 -3.2468 3.2468c -0.0000,1.7931 1.4536,3.2468 3.2468 3.2468c 1.7931,0.0000 3.2468,-1.4536 3.2468 -3.2468Z"/></g><g stroke-linejoin="miter" fill-opacity="1.0" fill="rgb(0,0,0)" stroke="rgb(0,0,0)" stroke-linecap="butt" stroke-miterlimit="10.0" stroke-opacity="1.0" stroke-width="0.9797958971132713"><path d="M 138.3117,183.7662 c 0.0000,-1.7931 -1.4536,-3.2468 -3.2468 -3.2468c -1.7931,-0.0000 -3.2468,1.4536 -3.2468 3.2468c -0.0000,1.7931 1.4536,3.2468 3.2468 3.2468c 1.7931,0.0000 3.2468,-1.4536 3.2468 -3.2468Z"/></g><g stroke-linejoin="miter" fill-opacity="1.0" fill="rgb(0,0,0)" stroke="rgb(0,0,0)" stroke-linecap="butt" stroke-miterlimit="10.0" stroke-opacity="1.0" stroke-width="0.9797958971132713"><path d="M 138.3117,151.2987 c 0.0000,-1.7931 -1.4536,-3.2468 -3.2468 -3.2468c -1.7931,-0.0000 -3.2468,1.4536 -3.2468 3.2468c -0.0000,1.7931 1.4536,3.2468 3.2468 3.2468c 1.7931,0.0000 3.2468,-1.4536 3.2468 -3.2468Z"/></g><g stroke-linejoin="miter" fill-opacity="1.0" fill="rgb(0,0,0)" stroke="rgb(0,0,0)" stroke-linecap="butt" stroke-miterlimit="10.0" stroke-opacity="1.0" stroke-width="0.9797958971132713"><path d="M 138.3117,118.8312 c 0.0000,-1.7931 -1.4536,-3.2468 -3.2468 -3.2468c -1.7931,-0.0000 -3.2468,1.4536 -3.2468 3.2468c -0.0000,1.7931 1.4536,3.2468 3.2468 3.2468c 1.7931,0.0000 3.2468,-1.4536 3.2468 -3.2468Z"/></g><g stroke-linejoin="miter" fill-opacity="1.0" fill="rgb(0,0,0)" stroke="rgb(0,0,0)" stroke-linecap="butt" stroke-miterlimit="10.0" stroke-opacity="1.0" stroke-width="0.9797958971132713"><path d="M 138.3117,86.3636 c 0.0000,-1.7931 -1.4536,-3.2468 -3.2468 -3.2468c -1.7931,-0.0000 -3.2468,1.4536 -3.2468 3.2468c -0.0000,1.7931 1.4536,3.2468 3.2468 3.2468c 1.7931,0.0000 3.2468,-1.4536 3.2468 -3.2468Z"/></g><g stroke-linejoin="miter" fill-opacity="1.0" fill="rgb(0,0,0)" stroke="rgb(0,0,0)" stroke-linecap="butt" stroke-miterlimit="10.0" stroke-opacity="1.0" stroke-width="0.9797958971132713"><path d="M 138.3117,53.8961 c 0.0000,-1.7931 -1.4536,-3.2468 -3.2468 -3.2468c -1.7931,-0.0000 -3.2468,1.4536 -3.2468 3.2468c -0.0000,1.7931 1.4536,3.2468 3.2468 3.2468c 1.7931,0.0000 3.2468,-1.4536 3.2468 -3.2468Z"/></g><g stroke-linejoin="miter" fill-opacity="1.0" fill="rgb(0,0,0)" stroke="rgb(0,0,0)" stroke-linecap="butt" stroke-miterlimit="10.0" stroke-opacity="1.0" stroke-width="0.9797958971132713"><path d="M 138.3117,21.4286 c 0.0000,-1.7931 -1.4536,-3.2468 -3.2468 -3.2468c -1.7931,-0.0000 -3.2468,1.4536 -3.2468 3.2468c -0.0000,1.7931 1.4536,3.2468 3.2468 3.2468c 1.7931,0.0000 3.2468,-1.4536 3.2468 -3.2468Z"/></g></svg>