<?xml version="1.0" encoding="UTF-8"?>
<!DOCTYPE svg PUBLIC "-//W3C//DTD SVG 1.1//EN"
    "http://www.w3.org/Graphics/SVG/1.1/DTD/svg11.dtd"><svg xmlns="http://www.w3.org/2000/svg" viewBox="0.0 0.0 400.0 400.0" height="400.0000" font-size="1" stroke-opacity="1" width="400.0000" xmlns:xlink="http://www.w3.org/1999/xlink" stroke="rgb(0,0,0)" version="1.1"><defs></defs><g stroke-linecap="butt" fill="rgb(0,0,0)" stroke-miterlimit="10.0" stroke-width="1.6" fill-opacity="0.0" stroke-opacity="1.0" stroke-linejoin="miter" stroke="rgb(0,0,0)"><path d="M 200.0000,44.1558 l 155.8442,103.8961 "/></g><g stroke-linecap="butt" fill="rgb(212,255,255)" stroke-miterlimit="10.0" stroke-width="0.8" fill-opacity="1.0" stroke-opacity="1.0" stroke-linejoin="miter" stroke="rgb(0,0,0)"><path d="M 287.0130,105.1948 l -0.0000,-18.1818 h -18.1818 l -0.0000,18.1818 Z"/></g><g stroke-linecap="butt" fill="rgb(0,0,0)" font-size="15.584415584415584px" stroke-miterlimit="10.0" stroke-width="1.6" fill-opacity="1.0" stroke-opacity="1.0" stroke-linejoin="miter" stroke="rgb(0,0,0)"><text transform="matrix(1.0000,0.0000,0.0000,1.0000,277.9221,96.1039)" dominant-baseline="middle" text-anchor="middle" stroke="none">11</text></g><g stroke-linecap="butt" fill="rgb(0,0,0)" stroke-miterlimit="10.0" stroke-width="1.6" fill-opacity="0.0" stroke-opacity="1.0" stroke-linejoin="miter" stroke="rgb(0,0,0)"><path d="M 200.0000,44.1558 l -51.9481,103.8961 "/></g><g stroke-linecap="butt" fill="rgb(212,255,255)" stroke-miterlimit="10.0" stroke-width="0.8" fill-opacity="1.0" stroke-opacity="1.0" stroke-linejoin="miter" stroke="rgb(0,0,0)"><path d="M 183.1169,105.1948 l -0.0000,-18.1818 h -18.1818 l -0.0000,18.1818 Z"/></g><g stroke-linecap="butt" fill="rgb(0,0,0)" font-size="15.584415584415584px" stroke-miterlimit="10.0" stroke-width="1.6" fill-opacity="1.0" stroke-opacity="1.0" stroke-linejoin="miter" stroke="rgb(0,0,0)"><text transform="matrix(1.0000,0.0000,0.0000,1.0000,174.0260,96.1039)" dominant-baseline="middle" text-anchor="middle" stroke="none">3</text></g><g stroke-linecap="butt" fill="rgb(0,0,0)" stroke-miterlimit="10.0" stroke-width="1.6" fill-opacity="0.0" stroke-opacity="1.0" stroke-linejoin="miter" stroke="rgb(0,0,0)"><path d="M 200.0000,44.1558 l -155.8442,103.8961 "/></g><g stroke-linecap="butt" fill="rgb(212,255,255)" stroke-miterlimit="10.0" stroke-width="0.8" fill-opacity="1.0" stroke-opacity="1.0" stroke-linejoin="miter" stroke="rgb(0,0,0)"><path d="M 131.1688,105.1948 l -0.0000,-18.1818 h -18.1818 l -0.0000,18.1818 Z"/></g><g stroke-linecap="butt" fill="rgb(0,0,0)" font-size="15.584415584415584px" stroke-miterlimit="10.0" stroke-width="1.6" fill-opacity="1.0" stroke-opacity="1.0" stroke-linejoin="miter" stroke="rgb(0,0,0)"><text transform="matrix(1.0000,0.0000,0.0000,1.0000,122.0779,96.1039)" dominant-baseline="middle" text-anchor="middle" stroke="none">2</text></g><g stroke-linecap="butt" fill="rgb(0,0,0)" stroke-miterlimit="10.0" stroke-width="1.6" fill-opacity="0.0" stroke-opacity="1.0" stroke-linejoin="miter" stroke="rgb(0,0,0)"><path d="M 355.8442,148.0519 v 103.8961 "/></g><g stroke-linecap="butt" fill="rgb(212,255,255)" stroke-miterlimit="10.0" stroke-width="0.8" fill-opacity="1.0" stroke-opacity="1.0" stroke-linejoin="miter" stroke="rgb(0,0,0)"><path d="M 364.9351,209.0909 l -0.0000,-18.1818 h -18.1818 l -0.0000,18.1818 Z"/></g><g stroke-linecap="butt" fill="rgb(0,0,0)" font-size="15.584415584415584px" stroke-miterlimit="10.0" stroke-width="1.6" fill-opacity="1.0" stroke-opacity="1.0" stroke-linejoin="miter" stroke="rgb(0,0,0)"><text transform="matrix(1.0000,0.0000,0.0000,1.0000,355.8442,200.0000)" dominant-baseline="middle" text-anchor="middle" stroke="none">11</text></g><g stroke-linecap="butt" fill="rgb(255,255,255)" stroke-miterlimit="10.0" stroke-width="1.6" fill-opacity="1.0" stroke-opacity="1.0" stroke-linejoin="miter" stroke="rgb(0,0,0)"><path d="M 381.8182,251.9481 c 0.0000,-14.3451 -11.6290,-25.9740 -25.9740 -25.9740c -14.3451,-0.0000 -25.9740,11.6290 -25.9740 25.9740c -0.0000,14.3451 11.6290,25.9740 25.9740 25.9740c 14.3451,0.0000 25.9740,-11.6290 25.9740 -25.9740Z"/></g><g stroke-linecap="butt" fill="rgb(0,0,0)" font-size="25.974025974025974px" stroke-miterlimit="10.0" stroke-width="1.6" fill-opacity="1.0" stroke-opacity="1.0" stroke-linejoin="miter" stroke="rgb(0,0,0)"><text transform="matrix(1.0000,0.0000,0.0000,1.0000,355.8442,251.9481)" dominant-baseline="middle" text-anchor="middle" stroke="none">121</text></g><g stroke-linecap="butt" fill="rgb(255,255,255)" stroke-miterlimit="10.0" stroke-width="1.6" fill-opacity="1.0" stroke-opacity="1.0" stroke-linejoin="miter" stroke="rgb(0,0,0)"><path d="M 381.8182,148.0519 c 0.0000,-14.3451 -11.6290,-25.9740 -25.9740 -25.9740c -14.3451,-0.0000 -25.9740,11.6290 -25.9740 25.9740c -0.0000,14.3451 11.6290,25.9740 25.9740 25.9740c 14.3451,0.0000 25.9740,-11.6290 25.9740 -25.9740Z"/></g><g stroke-linecap="butt" fill="rgb(0,0,0)" font-size="25.974025974025974px" stroke-miterlimit="10.0" stroke-width="1.6" fill-opacity="1.0" stroke-opacity="1.0" stroke-linejoin="miter" stroke="rgb(0,0,0)"><text transform="matrix(1.0000,0.0000,0.0000,1.0000,355.8442,148.0519)" dominant-baseline="middle" text-anchor="middle" stroke="none">11</text></g><g stroke-linecap="butt" fill="rgb(0,0,0)" stroke-miterlimit="10.0" stroke-width="1.6" fill-opacity="0.0" stroke-opacity="1.0" stroke-linejoin="miter" stroke="rgb(0,0,0)"><path d="M 148.0519,148.0519 l 103.8961,103.8961 "/></g><g stroke-linecap="butt" fill="rgb(212,255,255)" stroke-miterlimit="10.0" stroke-width="0.8" fill-opacity="1.0" stroke-opacity="1.0" stroke-linejoin="miter" stroke="rgb(0,0,0)"><path d="M 209.0909,209.0909 l -0.0000,-18.1818 h -18.1818 l -0.0000,18.1818 Z"/></g><g stroke-linecap="butt" fill="rgb(0,0,0)" font-size="15.584415584415584px" stroke-miterlimit="10.0" stroke-width="1.6" fill-opacity="1.0" stroke-opacity="1.0" stroke-linejoin="miter" stroke="rgb(0,0,0)"><text transform="matrix(1.0000,0.0000,0.0000,1.0000,200.0000,200.0000)" dominant-baseline="middle" text-anchor="middle" stroke="none">7</text></g><g stroke-linecap="butt" fill="rgb(0,0,0)" stroke-miterlimit="10.0" stroke-width="1.6" fill-opacity="0.0" stroke-opacity="1.0" stroke-linejoin="miter" stroke="rgb(0,0,0)"><path d="M 148.0519,148.0519 v 103.8961 "/></g><g stroke-linecap="butt" fill="rgb(212,255,255)" stroke-miterlimit="10.0" stroke-width="0.8" fill-opacity="1.0" stroke-opacity="1.0" stroke-linejoin="miter" stroke="rgb(0,0,0)"><path d="M 157.1429,209.0909 l -0.0000,-18.1818 h -18.1818 l -0.0000,18.1818 Z"/></g><g stroke-linecap="butt" fill="rgb(0,0,0)" font-size="15.584415584415584px" stroke-miterlimit="10.0" stroke-width="1.6" fill-opacity="1.0" stroke-opacity="1.0" stroke-linejoin="miter" stroke="rgb(0,0,0)"><text transform="matrix(1.0000,0.0000,0.0000,1.0000,148.0519,200.0000)" dominant-baseline="middle" text-anchor="middle" stroke="none">5</text></g><g stroke-linecap="butt" fill="rgb(0,0,0)" stroke-miterlimit="10.0" stroke-width="1.6" fill-opacity="0.0" stroke-opacity="1.0" stroke-linejoin="miter" stroke="rgb(0,0,0)"><path d="M 148.0519,148.0519 l -103.8961,103.8961 "/></g><g stroke-linecap="butt" fill="rgb(212,255,255)" stroke-miterlimit="10.0" stroke-width="0.8" fill-opacity="1.0" stroke-opacity="1.0" stroke-linejoin="miter" stroke="rgb(0,0,0)"><path d="M 105.1948,209.0909 l -0.0000,-18.1818 h -18.1818 l -0.0000,18.1818 Z"/></g><g stroke-linecap="butt" fill="rgb(0,0,0)" font-size="15.584415584415584px" stroke-miterlimit="10.0" stroke-width="1.6" fill-opacity="1.0" stroke-opacity="1.0" stroke-linejoin="miter" stroke="rgb(0,0,0)"><text transform="matrix(1.0000,0.0000,0.0000,1.0000,96.1039,200.0000)" dominant-baseline="middle" text-anchor="middle" stroke="none">3</text></g><g stroke-linecap="butt" fill="rgb(255,255,255)" stroke-miterlimit="10.0" stroke-width="1.6" fill-opacity="1.0" stroke-opacity="1.0" stroke-linejoin="miter" stroke="rgb(0,0,0)"><path d="M 277.9221,251.9481 c 0.0000,-14.3451 -11.6290,-25.9740 -25.9740 -25.9740c -14.3451,-0.0000 -25.9740,11.6290 -25.9740 25.9740c -0.0000,14.3451 11.6290,25.9740 25.9740 25.9740c 14.3451,0.0000 25.9740,-11.6290 25.9740 -25.9740Z"/></g><g stroke-linecap="butt" fill="rgb(0,0,0)" font-size="25.974025974025974px" stroke-miterlimit="10.0" stroke-width="1.6" fill-opacity="1.0" stroke-opacity="1.0" stroke-linejoin="miter" stroke="rgb(0,0,0)"><text transform="matrix(1.0000,0.0000,0.0000,1.0000,251.9481,251.9481)" dominant-baseline="middle" text-anchor="middle" stroke="none">21</text></g><g stroke-linecap="butt" fill="rgb(0,0,0)" stroke-miterlimit="10.0" stroke-width="1.6" fill-opacity="0.0" stroke-opacity="1.0" stroke-linejoin="miter" stroke="rgb(0,0,0)"><path d="M 148.0519,251.9481 v 103.8961 "/></g><g stroke-linecap="butt" fill="rgb(212,255,255)" stroke-miterlimit="10.0" stroke-width="0.8" fill-opacity="1.0" stroke-opacity="1.0" stroke-linejoin="miter" stroke="rgb(0,0,0)"><path d="M 157.1429,312.9870 l -0.0000,-18.1818 h -18.1818 l -0.0000,18.1818 Z"/></g><g stroke-linecap="butt" fill="rgb(0,0,0)" font-size="15.584415584415584px" stroke-miterlimit="10.0" stroke-width="1.6" fill-opacity="1.0" stroke-opacity="1.0" stroke-linejoin="miter" stroke="rgb(0,0,0)"><text transform="matrix(1.0000,0.0000,0.0000,1.0000,148.0519,303.8961)" dominant-baseline="middle" text-anchor="middle" stroke="none">5</text></g><g stroke-linecap="butt" fill="rgb(255,255,255)" stroke-miterlimit="10.0" stroke-width="1.6" fill-opacity="1.0" stroke-opacity="1.0" stroke-linejoin="miter" stroke="rgb(0,0,0)"><path d="M 174.0260,355.8442 c 0.0000,-14.3451 -11.6290,-25.9740 -25.9740 -25.9740c -14.3451,-0.0000 -25.9740,11.6290 -25.9740 25.9740c -0.0000,14.3451 11.6290,25.9740 25.9740 25.9740c 14.3451,0.0000 25.9740,-11.6290 25.9740 -25.9740Z"/></g><g stroke-linecap="butt" fill="rgb(0,0,0)" font-size="25.974025974025974px" stroke-miterlimit="10.0" stroke-width="1.6" fill-opacity="1.0" stroke-opacity="1.0" stroke-linejoin="miter" stroke="rgb(0,0,0)"><text transform="matrix(1.0000,0.0000,0.0000,1.0000,148.0519,355.8442)" dominant-baseline="middle" text-anchor="middle" stroke="none">75</text></g><g stroke-linecap="butt" fill="rgb(255,255,255)" stroke-miterlimit="10.0" stroke-width="1.6" fill-opacity="1.0" stroke-opacity="1.0" stroke-linejoin="miter" stroke="rgb(0,0,0)"><path d="M 174.0260,251.9481 c 0.0000,-14.3451 -11.6290,-25.9740 -25.9740 -25.9740c -14.3451,-0.0000 -25.9740,11.6290 -25.9740 25.9740c -0.0000,14.3451 11.6290,25.9740 25.9740 25.9740c 14.3451,0.0000 25.9740,-11.6290 25.9740 -25.9740Z"/></g><g stroke-linecap="butt" fill="rgb(0,0,0)" font-size="25.974025974025974px" stroke-miterlimit="10.0" stroke-width="1.6" fill-opacity="1.0" stroke-opacity="1.0" stroke-linejoin="miter" stroke="rgb(0,0,0)"><text transform="matrix(1.0000,0.0000,0.0000,1.0000,148.0519,251.9481)" dominant-baseline="middle" text-anchor="middle" stroke="none">15</text></g><g stroke-linecap="butt" fill="rgb(255,255,255)" stroke-miterlimit="10.0" stroke-width="1.6" fill-opacity="1.0" stroke-opacity="1.0" stroke-linejoin="miter" stroke="rgb(0,0,0)"><path d="M 70.1299,251.9481 c 0.0000,-14.3451 -11.6290,-25.9740 -25.9740 -25.9740c -14.3451,-0.0000 -25.9740,11.6290 -25.9740 25.9740c -0.0000,14.3451 11.6290,25.9740 25.9740 25.9740c 14.3451,0.0000 25.9740,-11.6290 25.9740 -25.9740Z"/></g><g stroke-linecap="butt" fill="rgb(0,0,0)" font-size="25.974025974025974px" stroke-miterlimit="10.0" stroke-width="1.6" fill-opacity="1.0" stroke-opacity="1.0" stroke-linejoin="miter" stroke="rgb(0,0,0)"><text transform="matrix(1.0000,0.0000,0.0000,1.0000,44.1558,251.9481)" dominant-baseline="middle" text-anchor="middle" stroke="none">9</text></g><g stroke-linecap="butt" fill="rgb(255,255,255)" stroke-miterlimit="10.0" stroke-width="1.6" fill-opacity="1.0" stroke-opacity="1.0" stroke-linejoin="miter" stroke="rgb(0,0,0)"><path d="M 174.0260,148.0519 c 0.0000,-14.3451 -11.6290,-25.9740 -25.9740 -25.9740c -14.3451,-0.0000 -25.9740,11.6290 -25.9740 25.9740c -0.0000,14.3451 11.6290,25.9740 25.9740 25.9740c 14.3451,0.0000 25.9740,-11.6290 25.9740 -25.9740Z"/></g><g stroke-linecap="butt" fill="rgb(0,0,0)" font-size="25.974025974025974px" stroke-miterlimit="10.0" stroke-width="1.6" fill-opacity="1.0" stroke-opacity="1.0" stroke-linejoin="miter" stroke="rgb(0,0,0)"><text transform="matrix(1.0000,0.0000,0.0000,1.0000,148.0519,148.0519)" dominant-baseline="middle" text-anchor="middle" stroke="none">3</text></g><g stroke-linecap="butt" fill="rgb(255,255,255)" stroke-miterlimit="10.0" stroke-width="1.6" fill-opacity="1.0" stroke-opacity="1.0" stroke-linejoin="miter" stroke="rgb(0,0,0)"><path d="M 70.1299,148.0519 c 0.0000,-14.3451 -11.6290,-25.9740 -25.9740 -25.9740c -14.3451,-0.0000 -25.9740,11.6290 -25.9740 25.9740c -0.0000,14.3451 11.6290,25.9740 25.9740 25.9740c 14.3451,0.0000 25.9740,-11.6290 25.9740 -25.9740Z"/></g><g stroke-linecap="butt" fill="rgb(0,0,0)" font-size="25.974025974025974px" stroke-miterlimit="10.0" stroke-width="1.6" fill-opacity="1.0" stroke-opacity="1.0" stroke-linejoin="miter" stroke="rgb(0,0,0)"><text transform="matrix(1.0000,0.0000,0.0000,1.0000,44.1558,148.0519)" dominant-baseline="middle" text-anchor="middle" stroke="none">2</text></g><g stroke-linecap="butt" fill="rgb(255,255,255)" stroke-miterlimit="10.0" stroke-width="1.6" fill-opacity="1.0" stroke-opacity="1.0" stroke-linejoin="miter" stroke="rgb(0,0,0)"><path d="M 225.9740,44.1558 c 0.0000,-14.3451 -11.6290,-25.9740 -25.9740 -25.9740c -14.3451,-0.0000 -25.9740,11.6290 -25.9740 25.9740c -0.0000,14.3451 11.6290,25.9740 25.9740 25.9740c 14.3451,0.0000 25.9740,-11.6290 25.9740 -25.9740Z"/></g><g stroke-linecap="butt" fill="rgb(0,0,0)" font-size="25.974025974025974px" stroke-miterlimit="10.0" stroke-width="1.6" fill-opacity="1.0" stroke-opacity="1.0" stroke-linejoin="miter" stroke="rgb(0,0,0)"><text transform="matrix(1.0000,0.0000,0.0000,1.0000,200.0000,44.1558)" dominant-baseline="middle" text-anchor="middle" stroke="none">1</text></g></svg>