<?xml version="1.0" encoding="UTF-8"?>
<!DOCTYPE svg PUBLIC "-//W3C//DTD SVG 1.1//EN"
    "http://www.w3.org/Graphics/SVG/1.1/DTD/svg11.dtd"><svg font-size="1" viewBox="0.0 0.0 400.0 400.0" stroke="rgb(0,0,0)" xmlns="http://www.w3.org/2000/svg" width="400.0000" stroke-opacity="1" height="400.0000" version="1.1" xmlns:xlink="http://www.w3.org/1999/xlink"><defs></defs><g stroke-linejoin="miter" fill-opacity="0.0" fill="rgb(0,0,0)" stroke="rgb(0,0,0)" stroke-linecap="butt" stroke-miterlimit="10.0" stroke-opacity="1.0" stroke-width="1.336850706444349"><path d="M 200.0000,21.6123 l 123.4991,27.4443 "/></g><g stroke-linejoin="miter" fill-opacity="0.0" fill="rgb(0,0,0)" stroke="rgb(0,0,0)" stroke-linecap="butt" stroke-miterlimit="10.0" stroke-opacity="1.0" stroke-width="1.336850706444349"><path d="M 200.0000,21.6123 l 96.0549,27.4443 "/></g><g stroke-linejoin="miter" fill-opacity="0.0" fill="rgb(0,0,0)" stroke="rgb(0,0,0)" stroke-linecap="butt" stroke-miterlimit="10.0" stroke-opacity="1.0" stroke-width="1.336850706444349"><path d="M 200.0000,21.6123 l 68.6106,27.4443 "/></g><g stroke-linejoin="miter" fill-opacity="0.0" fill="rgb(0,0,0)" stroke="rgb(0,0,0)" stroke-linecap="butt" stroke-miterlimit="10.0" stroke-opacity="1.0" stroke-width="1.336850706444349"><path d="M 200.0000,21.6123 l 41.1664,27.4443 "/></g><g stroke-linejoin="miter" fill-opacity="0.0" fill="rgb(0,0,0)" stroke="rgb(0,0,0)" stroke-linecap="butt" stroke-miterlimit="10.0" stroke-opacity="1.0" stroke-width="1.336850706444349"><path d="M 200.0000,21.6123 l 13.7221,27.4443 "/></g><g stroke-linejoin="miter" fill-opacity="0.0" fill="rgb(0,0,0)" stroke="rgb(0,0,0)" stroke-linecap="butt" stroke-miterlimit="10.0" stroke-opacity="1.0" stroke-width="1.336850706444349"><path d="M 200.0000,21.6123 l -13.7221,27.4443 "/></g><g stroke-linejoin="miter" fill-opacity="0.0" fill="rgb(0,0,0)" stroke="rgb(0,0,0)" stroke-linecap="butt" stroke-miterlimit="10.0" stroke-opacity="1.0" stroke-width="1.336850706444349"><path d="M 200.0000,21.6123 l -41.1664,27.4443 "/></g><g stroke-linejoin="miter" fill-opacity="0.0" fill="rgb(0,0,0)" stroke="rgb(0,0,0)" stroke-linecap="butt" stroke-miterlimit="10.0" stroke-opacity="1.0" stroke-width="1.336850706444349"><path d="M 200.0000,21.6123 l -68.6106,27.4443 "/></g><g stroke-linejoin="miter" fill-opacity="0.0" fill="rgb(0,0,0)" stroke="rgb(0,0,0)" stroke-linecap="butt" stroke-miterlimit="10.0" stroke-opacity="1.0" stroke-width="1.336850706444349"><path d="M 200.0000,21.6123 l -96.0549,27.4443 "/></g><g stroke-linejoin="miter" fill-opacity="0.0" fill="rgb(0,0,0)" stroke="rgb(0,0,0)" stroke-linecap="butt" stroke-miterlimit="10.0" stroke-opacity="1.0" stroke-width="1.336850706444349"><path d="M 200.0000,21.6123 l -123.4991,27.4443 "/></g><g stroke-linejoin="miter" fill-opacity="0.0" fill="rgb(0,0,0)" stroke="rgb(0,0,0)" stroke-linecap="butt" stroke-miterlimit="10.0" stroke-opacity="1.0" stroke-width="1.336850706444349"><path d="M 323.4991,49.0566 v 27.4443 "/></g><g stroke-linejoin="miter" fill-opacity="0.0" fill="rgb(0,0,0)" stroke="rgb(0,0,0)" stroke-linecap="butt" stroke-miterlimit="10.0" stroke-opacity="1.0" stroke-width="1.336850706444349"><path d="M 323.4991,76.5009 v 27.4443 "/></g><g stroke-linejoin="miter" fill-opacity="0.0" fill="rgb(0,0,0)" stroke="rgb(0,0,0)" stroke-linecap="butt" stroke-miterlimit="10.0" stroke-opacity="1.0" stroke-width="1.336850706444349"><path d="M 323.4991,103.9451 v 27.4443 "/></g><g stroke-linejoin="miter" fill-opacity="0.0" fill="rgb(0,0,0)" stroke="rgb(0,0,0)" stroke-linecap="butt" stroke-miterlimit="10.0" stroke-opacity="1.0" stroke-width="1.336850706444349"><path d="M 323.4991,131.3894 v 27.4443 "/></g><g stroke-linejoin="miter" fill-opacity="0.0" fill="rgb(0,0,0)" stroke="rgb(0,0,0)" stroke-linecap="butt" stroke-miterlimit="10.0" stroke-opacity="1.0" stroke-width="1.336850706444349"><path d="M 323.4991,158.8336 v 27.4443 "/></g><g stroke-linejoin="miter" fill-opacity="0.0" fill="rgb(0,0,0)" stroke="rgb(0,0,0)" stroke-linecap="butt" stroke-miterlimit="10.0" stroke-opacity="1.0" stroke-width="1.336850706444349"><path d="M 323.4991,186.2779 v 27.4443 "/></g><g stroke-linejoin="miter" fill-opacity="0.0" fill="rgb(0,0,0)" stroke="rgb(0,0,0)" stroke-linecap="butt" stroke-miterlimit="10.0" stroke-opacity="1.0" stroke-width="1.336850706444349"><path d="M 323.4991,213.7221 v 27.4443 "/></g><g stroke-linejoin="miter" fill-opacity="0.0" fill="rgb(0,0,0)" stroke="rgb(0,0,0)" stroke-linecap="butt" stroke-miterlimit="10.0" stroke-opacity="1.0" stroke-width="1.336850706444349"><path d="M 323.4991,241.1664 v 27.4443 "/></g><g stroke-linejoin="miter" fill-opacity="0.0" fill="rgb(0,0,0)" stroke="rgb(0,0,0)" stroke-linecap="butt" stroke-miterlimit="10.0" stroke-opacity="1.0" stroke-width="1.336850706444349"><path d="M 323.4991,268.6106 v 27.4443 "/></g><g stroke-linejoin="miter" fill-opacity="0.0" fill="rgb(0,0,0)" stroke="rgb(0,0,0)" stroke-linecap="butt" stroke-miterlimit="10.0" stroke-opacity="1.0" stroke-width="1.336850706444349"><path d="M 323.4991,296.0549 v 27.4443 "/></g><g stroke-linejoin="miter" fill-opacity="0.0" fill="rgb(0,0,0)" stroke="rgb(0,0,0)" stroke-linecap="butt" stroke-miterlimit="10.0" stroke-opacity="1.0" stroke-width="1.336850706444349"><path d="M 323.4991,323.4991 v 27.4443 "/></g><g stroke-linejoin="miter" fill-opacity="0.0" fill="rgb(0,0,0)" stroke="rgb(0,0,0)" stroke-linecap="butt" stroke-miterlimit="10.0" stroke-opacity="1.0" stroke-width="1.336850706444349"><path d="M 323.4991,350.9434 v 27.4443 "/></g><g stroke-linejoin="miter" fill-opacity="1.0" fill="rgb(0,0,0)" stroke="rgb(0,0,0)" stroke-linecap="butt" stroke-miterlimit="10.0" stroke-opacity="1.0" stroke-width="1.336850706444349"><path d="M 326.9297,378.3877 c 0.0000,-1.8946 -1.5359,-3.4305 -3.4305 -3.4305c -1.8946,-0.0000 -3.4305,1.5359 -3.4305 3.4305c -0.0000,1.8946 1.5359,3.4305 3.4305 3.4305c 1.8946,0.0000 3.4305,-1.5359 3.4305 -3.4305Z"/></g><g stroke-linejoin="miter" fill-opacity="1.0" fill="rgb(0,0,0)" stroke="rgb(0,0,0)" stroke-linecap="butt" stroke-miterlimit="10.0" stroke-opacity="1.0" stroke-width="1.336850706444349"><path d="M 326.9297,350.9434 c 0.0000,-1.8946 -1.5359,-3.4305 -3.4305 -3.4305c -1.8946,-0.0000 -3.4305,1.5359 -3.4305 3.4305c -0.0000,1.8946 1.5359,3.4305 3.4305 3.4305c 1.8946,0.0000 3.4305,-1.5359 3.4305 -3.4305Z"/></g><g stroke-linejoin="miter" fill-opacity="1.0" fill="rgb(0,0,0)" stroke="rgb(0,0,0)" stroke-linecap="butt" stroke-miterlimit="10.0" stroke-opacity="1.0" stroke-width="1.336850706444349"><path d="M 326.9297,323.4991 c 0.0000,-1.8946 -1.5359,-3.4305 -3.4305 -3.4305c -1.8946,-0.0000 -3.4305,1.5359 -3.4305 3.4305c -0.0000,1.8946 1.5359,3.4305 3.4305 3.4305c 1.8946,0.0000 3.4305,-1.5359 3.4305 -3.4305Z"/></g><g stroke-linejoin="miter" fill-opacity="1.0" fill="rgb(0,0,0)" stroke="rgb(0,0,0)" stroke-linecap="butt" stroke-miterlimit="10.0" stroke-opacity="1.0" stroke-width="1.336850706444349"><path d="M 326.9297,296.0549 c 0.0000,-1.8946 -1.5359,-3.4305 -3.4305 -3.4305c -1.8946,-0.0000 -3.4305,1.5359 -3.4305 3.4305c -0.0000,1.8946 1.5359,3.4305 3.4305 3.4305c 1.8946,0.0000 3.4305,-1.5359 3.4305 -3.4305Z"/></g><g stroke-linejoin="miter" fill-opacity="1.0" fill="rgb(0,0,0)" stroke="rgb(0,0,0)" stroke-linecap="butt" stroke-miterlimit="10.0" stroke-opacity="1.0" stroke-width="1.336850706444349"><path d="M 326.9297,268.6106 c 0.0000,-1.8946 -1.5359,-3.4305 -3.4305 -3.4305c -1.8946,-0.0000 -3.4305,1.5359 -3.4305 3.4305c -0.0000,1.8946 1.5359,3.4305 3.4305 3.4305c 1.8946,0.0000 3.4305,-1.5359 3.4305 -3.4305Z"/></g><g stroke-linejoin="miter" fill-opacity="1.0" fill="rgb(0,0,0)" stroke="rgb(0,0,0)" stroke-linecap="butt" stroke-miterlimit="10.0" stroke-opacity="1.0" stroke-width="1.336850706444349"><path d="M 326.9297,241.1664 c 0.0000,-1.8946 -1.5359,-3.4305 -3.4305 -3.4305c -1.8946,-0.0000 -3.4305,1.5359 -3.4305 3.4305c -0.0000,1.8946 1.5359,3.4305 3.4305 3.4305c 1.8946,0.0000 3.4305,-1.5359 3.4305 -3.4305Z"/></g><g stroke-linejoin="miter" fill-opacity="1.0" fill="rgb(0,0,0)" stroke="rgb(0,0,0)" stroke-linecap="butt" stroke-miterlimit="10.0" stroke-opacity="1.0" stroke-width="1.336850706444349"><path d="M 326.9297,213.7221 c 0.0000,-1.8946 -1.5359,-3.4305 -3.4305 -3.4305c -1.8946,-0.0000 -3.4305,1.5359 -3.4305 3.4305c -0.0000,1.8946 1.5359,3.4305 3.4305 3.4305c 1.8946,0.0000 3.4305,-1.5359 3.4305 -3.4305Z"/></g><g stroke-linejoin="miter" fill-opacity="1.0" fill="rgb(0,0,0)" stroke="rgb(0,0,0)" stroke-linecap="butt" stroke-miterlimit="10.0" stroke-opacity="1.0" stroke-width="1.336850706444349"><path d="M 326.9297,186.2779 c 0.0000,-1.8946 -1.5359,-3.4305 -3.4305 -3.4305c -1.8946,-0.0000 -3.4305,1.5359 -3.4305 3.4305c -0.0000,1.8946 1.5359,3.4305 3.4305 3.4305c 1.8946,0.0000 3.4305,-1.5359 3.4305 -3.4305Z"/></g><g stroke-linejoin="miter" fill-opacity="1.0" fill="rgb(0,0,0)" stroke="rgb(0,0,0)" stroke-linecap="butt" stroke-miterlimit="10.0" stroke-opacity="1.0" stroke-width="1.336850706444349"><path d="M 326.9297,158.8336 c 0.0000,-1.8946 -1.5359,-3.4305 -3.4305 -3.4305c -1.8946,-0.0000 -3.4305,1.5359 -3.4305 3.4305c -0.0000,1.8946 1.5359,3.4305 3.4305 3.4305c 1.8946,0.0000 3.4305,-1.5359 3.4305 -3.4305Z"/></g><g stroke-linejoin="miter" fill-opacity="1.0" fill="rgb(0,0,0)" stroke="rgb(0,0,0)" stroke-linecap="butt" stroke-miterlimit="10.0" stroke-opacity="1.0" stroke-width="1.336850706444349"><path d="M 326.9297,131.3894 c 0.0000,-1.8946 -1.5359,-3.4305 -3.4305 -3.4305c -1.8946,-0.0000 -3.4305,1.5359 -3.4305 3.4305c -0.0000,1.8946 1.5359,3.4305 3.4305 3.4305c 1.8946,0.0000 3.4305,-1.5359 3.4305 -3.4305Z"/></g><g stroke-linejoin="miter" fill-opacity="1.0" fill="rgb(0,0,0)" stroke="rgb(0,0,0)" stroke-linecap="butt" stroke-miterlimit="10.0" stroke-opacity="1.0" stroke-width="1.336850706444349"><path d="M 326.9297,103.9451 c 0.0000,-1.8946 -1.5359,-3.4305 -3.4305 -3.4305c -1.8946,-0.0000 -3.4305,1.5359 -3.4305 3.4305c -0.0000,1.8946 1.5359,3.4305 3.4305 3.4305c 1.8946,0.0000 3.4305,-1.5359 3.4305 -3.4305Z"/></g><g stroke-linejoin="miter" fill-opacity="1.0" fill="rgb(0,0,0)" stroke="rgb(0,0,0)" stroke-linecap="butt" stroke-miterlimit="10.0" stroke-opacity="1.0" stroke-width="1.336850706444349"><path d="M 326.9297,76.5009 c 0.0000,-1.8946 -1.5359,-3.4305 -3.4305 -3.4305c -1.8946,-0.0000 -3.4305,1.5359 -3.4305 3.4305c -0.0000,1.8946 1.5359,3.4305 3.4305 3.4305c 1.8946,0.0000 3.4305,-1.5359 3.4305 -3.4305Z"/></g><g stroke-linejoin="miter" fill-opacity="1.0" fill="rgb(0,0,0)" stroke="rgb(0,0,0)" stroke-linecap="butt" stroke-miterlimit="10.0" stroke-opacity="1.0" stroke-width="1.336850706444349"><path d="M 326.9297,49.0566 c 0.0000,-1.8946 -1.5359,-3.4305 -3.4305 -3.4305c -1.8946,-0.0000 -3.4305,1.5359 -3.4305 3.4305c -0.0000,1.8946 1.5359,3.4305 3.4305 3.4305c 1.8946,0.0000 3.4305,-1.5359 3.4305 -3.4305Z"/></g><g stroke-linejoin="miter" fill-opacity="1.0" fill="rgb(0,0,0)" stroke="rgb(0,0,0)" stroke-linecap="butt" stroke-miterlimit="10.0" stroke-opacity="1.0" stroke-width="1.336850706444349"><path d="M 299.4854,49.0566 c 0.0000,-1.8946 -1.5359,-3.4305 -3.4305 -3.4305c -1.8946,-0.0000 -3.4305,1.5359 -3.4305 3.4305c -0.0000,1.8946 1.5359,3.4305 3.4305 3.4305c 1.8946,0.0000 3.4305,-1.5359 3.4305 -3.4305Z"/></g><g stroke-linejoin="miter" fill-opacity="1.0" fill="rgb(0,0,0)" stroke="rgb(0,0,0)" stroke-linecap="butt" stroke-miterlimit="10.0" stroke-opacity="1.0" stroke-width="1.336850706444349"><path d="M 272.0412,49.0566 c 0.0000,-1.8946 -1.5359,-3.4305 -3.4305 -3.4305c -1.8946,-0.0000 -3.4305,1.5359 -3.4305 3.4305c -0.0000,1.8946 1.5359,3.4305 3.4305 3.4305c 1.8946,0.0000 3.4305,-1.5359 3.4305 -3.4305Z"/></g><g stroke-linejoin="miter" fill-opacity="1.0" fill="rgb(0,0,0)" stroke="rgb(0,0,0)" stroke-linecap="butt" stroke-miterlimit="10.0" stroke-opacity="1.0" stroke-width="1.336850706444349"><path d="M 244.5969,49.0566 c 0.0000,-1.8946 -1.5359,-3.4305 -3.4305 -3.4305c -1.8946,-0.0000 -3.4305,1.5359 -3.4305 3.4305c -0.0000,1.8946 1.5359,3.4305 3.4305 3.4305c 1.8946,0.0000 3.4305,-1.5359 3.4305 -3.4305Z"/></g><g stroke-linejoin="miter" fill-opacity="1.0" fill="rgb(0,0,0)" stroke="rgb(0,0,0)" stroke-linecap="butt" stroke-miterlimit="10.0" stroke-opacity="1.0" stroke-width="1.336850706444349"><path d="M 217.1527,49.0566 c 0.0000,-1.8946 -1.5359,-3.4305 -3.4305 -3.4305c -1.8946,-0.0000 -3.4305,1.5359 -3.4305 3.4305c -0.0000,1.8946 1.5359,3.4305 3.4305 3.4305c 1.8946,0.0000 3.4305,-1.5359 3.4305 -3.4305Z"/></g><g stroke-linejoin="miter" fill-opacity="1.0" fill="rgb(0,0,0)" stroke="rgb(0,0,0)" stroke-linecap="butt" stroke-miterlimit="10.0" stroke-opacity="1.0" stroke-width="1.336850706444349"><path d="M 189.7084,49.0566 c 0.0000,-1.8946 -1.5359,-3.4305 -3.4305 -3.4305c -1.8946,-0.0000 -3.4305,1.5359 -3.4305 3.4305c -0.0000,1.8946 1.5359,3.4305 3.4305 3.4305c 1.8946,0.0000 3.4305,-1.5359 3.4305 -3.4305Z"/></g><g stroke-linejoin="miter" fill-opacity="1.0" fill="rgb(0,0,0)" stroke="rgb(0,0,0)" stroke-linecap="butt" stroke-miterlimit="10.0" stroke-opacity="1.0" stroke-width="1.336850706444349"><path d="M 162.2642,49.0566 c 0.0000,-1.8946 -1.5359,-3.4305 -3.4305 -3.4305c -1.8946,-0.0000 -3.4305,1.5359 -3.4305 3.4305c -0.0000,1.8946 1.5359,3.4305 3.4305 3.4305c 1.8946,0.0000 3.4305,-1.5359 3.4305 -3.4305Z"/></g><g stroke-linejoin="miter" fill-opacity="1.0" fill="rgb(0,0,0)" stroke="rgb(0,0,0)" stroke-linecap="butt" stroke-miterlimit="10.0" stroke-opacity="1.0" stroke-width="1.336850706444349"><path d="M 134.8199,49.0566 c 0.0000,-1.8946 -1.5359,-3.4305 -3.4305 -3.4305c -1.8946,-0.0000 -3.4305,1.5359 -3.4305 3.4305c -0.0000,1.8946 1.5359,3.4305 3.4305 3.4305c 1.8946,0.0000 3.4305,-1.5359 3.4305 -3.4305Z"/></g><g stroke-linejoin="miter" fill-opacity="1.0" fill="rgb(0,0,0)" stroke="rgb(0,0,0)" stroke-linecap="butt" stroke-miterlimit="10.0" stroke-opacity="1.0" stroke-width="1.336850706444349"><path d="M 107.3756,49.0566 c 0.0000,-1.8946 -1.5359,-3.4305 -3.4305 -3.4305c -1.8946,-0.0000 -3.4305,1.5359 -3.4305 3.4305c -0.0000,1.8946 1.5359,3.4305 3.4305 3.4305c 1.8946,0.0000 3.4305,-1.5359 3.4305 -3.4305Z"/></g><g stroke-linejoin="miter" fill-opacity="1.0" fill="rgb(0,0,0)" stroke="rgb(0,0,0)" stroke-linecap="butt" stroke-miterlimit="10.0" stroke-opacity="1.0" stroke-width="1.336850706444349"><path d="M 79.9314,49.0566 c 0.0000,-1.8946 -1.5359,-3.4305 -3.4305 -3.4305c -1.8946,-0.0000 -3.4305,1.5359 -3.4305 3.4305c -0.0000,1.8946 1.5359,3.4305 3.4305 3.4305c 1.8946,0.0000 3.4305,-1.5359 3.4305 -3.4305Z"/></g><g stroke-linejoin="miter" fill-opacity="1.0" fill="rgb(0,0,0)" stroke="rgb(0,0,0)" stroke-linecap="butt" stroke-miterlimit="10.0" stroke-opacity="1.0" stroke-width="1.336850706444349"><path d="M 203.4305,21.6123 c 0.0000,-1.8946 -1.5359,-3.4305 -3.4305 -3.4305c -1.8946,-0.0000 -3.4305,1.5359 -3.4305 3.4305c -0.0000,1.8946 1.5359,3.4305 3.4305 3.4305c 1.8946,0.0000 3.4305,-1.5359 3.4305 -3.4305Z"/></g></svg>